<svg width="94" height="32" viewBox="0 0 94 32" fill="currentColor" xmlns="http://www.w3.org/2000/svg">
<g clip-path="url(#clip0_361_8087)">
<path d="M48.7516 1.49822C44.9391 0.546953 41.2798 6.53022 39.2843 14.5393C37.2888 22.5485 37.7126 29.5505 41.5254 30.5018C45.3382 31.4531 48.9973 25.4698 50.9928 17.4606C52.9883 9.45153 52.5643 2.44934 48.7516 1.49822ZM60.7306 15.9999C60.2852 24.8365 53.3985 32 44.3317 32C35.265 32 29.101 24.8365 29.5466 15.9999C29.9921 7.16327 36.8786 0 45.9452 0C55.0119 0 61.1762 7.16327 60.7306 15.9999ZM81.8086 1.49822C77.9959 0.546953 74.3366 6.53022 72.3412 14.5393C70.3459 22.5485 70.7692 29.5505 74.5819 30.5018C78.3946 31.4531 82.0539 25.4698 84.0492 17.4606C86.0446 9.45153 85.6206 2.44934 81.8086 1.49822ZM93.7872 15.9999C93.3419 24.8365 86.4552 32 77.3886 32C68.3219 32 62.1577 24.8365 62.6032 15.9999C63.0486 7.16327 69.9352 0 79.0019 0C88.0686 0 94.2326 7.16327 93.7872 15.9999ZM27.9931 20.9653C27.7456 28.0621 21.0922 31.9112 14.2426 31.9112C8.43896 31.9112 3.02015 28.8056 0.476562 26.9169L3.33812 18.96L3.50874 19.0213C8.21443 26.0601 12.2131 30.9081 16.3932 30.5308C19.1579 30.2813 20.8003 28.5946 20.9169 25.2525C21.0791 20.6034 17.5326 14.8397 4.19004 17.218L3.99042 17.146L9.9965 0.443996H30.1277L27.4252 7.9596H8.5647L6.78634 12.9053C17.4439 7.4272 28.2639 13.2061 27.9931 20.9653Z" fill="white"/>
</g>
<defs>
<clipPath id="clip0_361_8087">
<rect width="93.3333" height="32" fill="currentColor" transform="translate(0.476562)"/>
</clipPath>
</defs>
</svg>
