<svg width="90" height="32" viewBox="0 0 90 32" fill="none" xmlns="http://www.w3.org/2000/svg">
<g clip-path="url(#clip0_361_7947)">
<mask id="mask0_361_7947" style="mask-type:luminance" maskUnits="userSpaceOnUse" x="0" y="0" width="90" height="32">
<path d="M89.2228 0H0.333984V32H89.2228V0Z" fill="white"/>
</mask>
<g mask="url(#mask0_361_7947)">
<path d="M57.4898 7.02222H55.8898C56.1565 7.64444 56.2453 8.35555 56.1565 8.97777C55.9787 10.4889 55.0898 11.3778 53.6676 11.8222C52.8676 12.0889 51.9787 12.0889 51.0898 11.9111C50.7342 11.8222 50.4676 11.9111 50.3787 12.1778C50.2009 12.5333 50.2898 13.0667 50.6453 13.1556C50.912 13.3333 51.2676 13.3333 51.6231 13.4222C52.512 13.4222 53.4009 13.4222 54.3787 13.4222C55.2676 13.5111 56.2453 13.6 57.0453 14.3111C57.8453 15.0222 57.9342 16.3556 57.4009 17.4222C56.9564 18.4 56.1565 18.9333 55.1787 19.2889C53.312 20 51.3565 20.0889 49.4009 19.6444C48.7787 19.4667 48.1565 19.2 47.712 18.6667C46.912 17.6 47.0898 16.2667 48.1565 15.4667C48.4231 15.2889 48.6009 15.2 48.7787 15.0222C48.0676 14.4889 47.712 13.8667 47.8009 13.0667C47.8898 12.1778 48.4231 11.6444 48.9565 11.2C48.6898 10.8444 48.3342 10.4889 48.0676 10.1333C46.7342 8.08888 47.9787 5.24444 50.4676 4.71111C51.5342 4.44444 52.512 4.44444 53.5787 4.71111C53.6676 4.8 53.8453 4.8 54.0231 4.8H57.4898V7.02222ZM52.1565 18.0444V17.9556C52.3342 17.9556 52.512 17.9556 52.6898 17.9556C53.312 17.8667 53.9342 17.7778 54.3787 17.2444C54.5565 16.9778 54.6453 16.7111 54.6453 16.4444C54.6453 16.0889 54.2898 16 54.0231 15.9111C53.7565 15.8222 53.4898 15.8222 53.312 15.8222C52.4231 15.7333 51.5342 15.7333 50.6453 15.7333C50.5565 15.7333 50.4676 15.7333 50.3787 15.7333C49.8453 16.2667 49.5787 17.1556 50.3787 17.5111C50.912 17.7778 51.5342 17.8667 52.1565 18.0444ZM52.0676 6.66666C51.2676 6.66666 50.6453 7.11111 50.5565 7.91111C50.4676 8.53333 50.4676 9.24444 51.0009 9.77777C51.1787 9.95555 51.4453 10.0444 51.6231 10.0444C51.8898 10.1333 52.1565 10.1333 52.4231 10.0444C52.6009 10.0444 52.8676 9.86666 53.0453 9.68888C53.2231 9.51111 53.312 9.33333 53.4009 9.06666C53.7565 7.82222 53.1342 6.66666 52.0676 6.66666Z" fill="white"/>
<path d="M82.7342 15.3777H79.623V4.79995H82.2008C82.2008 5.2444 82.2897 5.68884 82.3786 6.13329C82.9119 5.77773 83.4453 5.33329 83.8897 5.06662C85.3119 4.08884 87.5342 4.35551 88.423 5.59995C88.9564 6.39995 89.223 7.28884 89.223 8.17773C89.223 10.5777 89.223 12.9777 89.223 15.3777H86.1119C86.1119 15.2 86.1119 15.0222 86.1119 14.8444C86.1119 12.8888 86.1119 10.9333 86.023 8.88884C86.023 8.79995 86.023 8.62218 86.023 8.53329C85.9342 7.37773 84.9564 6.8444 83.8897 7.37773C83.5342 7.55551 83.1786 7.82217 82.9119 8.17773C82.823 8.17773 82.7342 8.4444 82.7342 8.62217C82.7342 10.6666 82.7342 12.8 82.7342 14.9333V15.3777Z" fill="white"/>
<path d="M45.1352 15.3778H42.024V14.9334C42.024 13.0667 42.024 11.2 42.024 9.33336C42.024 8.88892 42.024 8.53336 41.9352 8.17781C41.7574 7.4667 41.3129 7.11114 40.6018 7.20003C39.8018 7.20003 39.2685 7.64448 38.824 8.17781C38.7352 8.2667 38.6463 8.44448 38.7352 8.53337C38.7352 10.6667 38.7352 12.8 38.7352 14.9334V15.3778H35.5352V4.80003H38.1129C38.2018 5.24448 38.2907 5.68892 38.3796 6.13337C38.824 5.77781 39.1796 5.51114 39.5352 5.24448C40.6907 4.44448 41.9352 4.35559 43.2685 4.80003C44.0685 5.0667 44.6018 5.68892 44.7796 6.48892C45.0463 7.20003 45.1352 7.91114 45.1352 8.62225C45.224 10.7556 45.224 12.9778 45.224 15.2C45.224 15.2 45.1352 15.2889 45.1352 15.3778Z" fill="white"/>
<path d="M77.4019 9.86678C77.313 11.7334 76.8685 13.2446 75.5352 14.4001C73.9352 15.7334 72.0685 16.0001 70.113 15.2001C67.9796 14.4001 66.8241 12.3557 66.913 9.95567C67.0019 8.35567 67.4463 6.93345 68.6019 5.86678C69.4019 5.24456 70.2908 4.80011 71.2685 4.62234C72.2463 4.44456 73.313 4.53345 74.2019 4.889C76.4241 5.95567 77.313 7.73345 77.4019 9.86678ZM70.113 10.1334C70.2019 10.7557 70.3796 11.4668 70.6463 12.089C70.8241 12.8001 71.4463 13.0668 72.1574 13.0668C72.8685 13.0668 73.4019 12.8001 73.6685 12.1779C74.0241 11.4668 74.113 10.7557 74.113 10.0446C74.113 9.33345 73.9352 8.62234 73.6685 8.00011C73.313 7.289 72.7796 7.02234 72.0685 7.11122C71.2685 7.11122 70.8241 7.46678 70.5574 8.17789C70.3796 8.71122 70.2908 9.42233 70.113 10.1334Z" fill="white"/>
<path d="M0.68954 5.95557C2.28954 5.06668 3.80065 4.44446 5.57842 4.53335C7.80064 4.62224 9.13398 5.77779 9.48953 7.91112C9.48953 8.35557 9.57842 8.8889 9.57842 9.33335C9.57842 11.2 9.57842 13.1556 9.57842 15.1111C9.57842 15.2 9.57842 15.2889 9.57842 15.3778H7.00064L6.73398 14.3111C6.28953 14.6667 5.84509 14.9333 5.31176 15.2C4.33398 15.7333 3.17843 15.8222 2.11176 15.3778C0.867317 14.7556 0.422873 13.7778 0.333984 12.4445C0.333984 11.2 0.956206 10.2222 2.11176 9.6889C3.17843 9.06668 4.51176 8.80001 5.7562 8.62224L6.37842 8.53335C6.37842 7.55557 5.66731 7.02224 4.60065 7.02224C3.88954 7.11112 3.08954 7.2889 2.46732 7.64446C2.28954 7.73335 2.11176 7.82224 1.84509 8.00001L0.68954 5.95557ZM6.37842 10.4889C5.48954 10.5778 4.68954 10.6667 3.88954 11.2C3.71176 11.3778 3.53398 11.5556 3.44509 11.8222C3.3562 12 3.3562 12.2667 3.44509 12.5333C3.53398 12.9778 3.88954 13.1556 4.51176 13.1556C4.86731 13.2445 5.22287 13.1556 5.57842 12.9778C5.84509 12.8 6.28953 12.4445 6.37842 12.1778C6.46731 11.6445 6.37842 11.0222 6.37842 10.4889Z" fill="white"/>
<path d="M65.491 12.9778C65.6687 13.7778 65.8465 14.4889 66.0243 15.2889C64.4243 15.6445 62.9132 16 61.4021 15.1111C60.3354 14.4 59.9799 13.3333 59.9799 12.1778C59.891 10.7556 59.891 9.24445 59.891 7.82223C59.891 7.64445 59.891 7.46668 59.891 7.20001H58.4688C58.4688 6.4889 58.4688 5.77779 58.4688 5.06668C58.4688 4.97779 58.6465 4.8889 58.7354 4.8889C59.1799 4.80001 59.6243 4.80001 60.0687 4.80001L60.4243 1.95557C61.2243 1.95557 62.0243 1.95557 62.8243 1.95557C62.9132 1.95557 63.091 2.13334 63.091 2.31112C63.091 3.11112 63.091 3.91112 63.091 4.80001H65.6687V7.20001H63.091V7.73334C63.091 9.06668 63.091 10.3111 63.091 11.6445C63.1799 12.8889 63.891 13.4222 65.1354 13.0667L65.491 12.9778Z" fill="white"/>
<path d="M77.0463 31.7333C76.3352 31.7333 75.5352 31.7333 74.8241 31.7333C74.7352 31.7333 74.6463 31.5555 74.5574 31.4666C74.3796 31.0221 74.2019 30.4888 74.0241 30.0444C74.0241 29.9555 74.0241 29.8666 73.9352 29.7777C73.8463 29.6888 73.6685 29.6888 73.5796 29.6888C72.6019 29.6888 71.713 29.6888 70.7352 29.6888C70.6463 29.6888 70.6463 29.6888 70.5574 29.6888L70.4685 29.7777C70.3796 29.7777 70.3796 29.8666 70.3796 29.8666C70.2908 29.9555 70.2907 29.9555 70.2907 30.0444C70.113 30.4888 69.9352 30.9333 69.8463 31.3777C69.8463 31.4666 69.8463 31.5555 69.7574 31.5555C69.7574 31.6444 69.7574 31.6444 69.6685 31.6444C69.6685 31.7333 69.5796 31.7333 69.5796 31.7333C69.4908 31.7333 69.4019 31.7333 69.4019 31.7333C68.6907 31.7333 68.0685 31.7333 67.3574 31.7333C67.5352 31.111 67.8019 30.4888 68.0685 29.8666C68.9574 27.3777 69.9352 24.7999 70.8241 22.311C71.1796 21.5999 71.0907 21.511 71.9796 21.5999C72.4241 21.5999 72.9574 21.4221 73.313 21.6888C73.5796 21.8666 73.6685 22.3999 73.7574 22.8444C74.8241 25.6888 75.9796 28.6221 77.0463 31.5555C77.0463 31.5555 77.0463 31.6444 77.0463 31.7333ZM73.313 27.7333C72.9574 26.5777 72.6019 25.511 72.2463 24.3555H72.1574C71.8019 25.511 71.4463 26.5777 71.0019 27.7333H73.313Z" fill="white"/>
<path d="M23.4457 31.7333C22.6457 31.7333 21.9346 31.7333 21.3124 31.7333C21.2235 31.7333 21.1346 31.6444 21.0457 31.6444C20.9568 31.5555 20.9569 31.4667 20.868 31.3778C20.6902 30.8444 20.5124 30.3111 20.2457 29.6889C19.1791 29.6889 18.0235 29.6889 16.9569 29.6889C16.868 29.6889 16.868 29.7778 16.7791 29.7778C16.7791 29.8667 16.6902 29.8667 16.6902 29.9556C16.5124 30.4889 16.3346 30.9333 16.1569 31.4667C16.068 31.5556 15.9791 31.7333 15.8902 31.7333C15.1791 31.7333 14.468 31.7333 13.668 31.7333L14.2902 29.9556C15.3569 27.2889 16.3346 24.6222 17.3124 21.9556C17.4902 21.6 17.5791 21.5111 17.9346 21.5111C18.3791 21.6 18.7346 21.6 19.1791 21.5111C19.5346 21.5111 19.7124 21.6 19.8013 21.9556C20.9568 25.1556 22.2013 28.2667 23.3568 31.4667C23.3568 31.5556 23.3568 31.5556 23.4457 31.7333ZM17.4013 27.7333H19.6235C19.268 26.5778 18.9124 25.5111 18.5569 24.3556H18.468C18.1124 25.5111 17.7569 26.5778 17.4013 27.7333Z" fill="white"/>
<path d="M7.26771 28.7111L8.77882 30.3111C7.71215 31.8222 5.57882 32.3555 3.62326 31.7333C2.11216 31.2 1.13438 30.0444 0.689934 28.5333C0.0677127 26.4889 0.24549 24.5333 1.66771 22.9333C3.17882 20.9777 6.46771 20.7111 8.33437 22.3111C8.77882 22.6666 8.77882 22.7555 8.42326 23.1111C8.15659 23.3777 7.97882 23.5555 7.80104 23.8222C7.62326 24 7.44548 24.1777 7.26771 24.3555C6.02326 22.8444 3.62326 23.2889 2.91215 25.4222C2.82327 25.8666 2.73438 26.4 2.73438 26.9333C2.82327 27.3777 2.91215 27.9111 3.17882 28.3555C4.06771 30.0444 6.20104 30.1333 7.17882 28.8889C7.17882 28.8 7.26771 28.8 7.26771 28.7111Z" fill="white"/>
<path d="M12.334 4.79999H14.9118C15.0006 5.42221 15.0895 5.95555 15.1784 6.66666C15.6229 5.86666 16.1562 5.24444 16.9562 4.79999C17.4006 4.62221 17.8451 4.53333 18.2895 4.53333C18.6451 4.53333 19.0895 4.62221 19.534 4.7111C19.3562 5.59999 19.1784 6.48888 19.0006 7.37777C18.734 7.37777 18.3784 7.37777 18.1118 7.28888C16.6895 7.1111 15.4451 8.62221 15.4451 9.68888C15.534 11.4667 15.4451 13.1555 15.4451 14.9333V15.3778H12.334V4.79999Z" fill="white"/>
<path d="M20.957 4.80004H23.5348C23.6237 5.42226 23.7126 6.04448 23.7126 6.75559C24.7792 4.97781 26.1126 4.08893 28.157 4.71115C27.9792 5.60004 27.8015 6.48893 27.6237 7.37781C27.2681 7.37781 27.0015 7.28893 26.7348 7.28893C25.4015 7.20004 24.0681 8.35559 24.0681 9.68892C24.0681 11.4667 24.0681 13.1556 24.0681 14.9334V15.3778H20.957V4.80004Z" fill="white"/>
<path d="M29.9336 21.6001C31.3558 21.6001 32.778 21.5112 34.2003 21.6001C36.3336 21.8667 36.9558 23.3778 36.778 25.2445C36.5114 26.9334 35.2669 27.7334 33.4891 27.8223C33.0447 27.9112 32.6003 27.8223 32.0669 27.8223V31.7334H29.9336V21.6001ZM32.0669 25.9556C32.6891 25.8667 33.2225 25.8667 33.7558 25.7778C34.2891 25.7778 34.5558 25.3334 34.5558 24.8001C34.6447 24.1778 34.4669 23.8223 33.9336 23.6445C33.3114 23.5556 32.6891 23.5556 32.0669 23.4667V25.9556Z" fill="white"/>
<path d="M32.6892 4.80005V15.3778H29.5781V4.80005H32.6892Z" fill="white"/>
<path d="M58.9123 31.7333H56.7789V23.6444H54.2012V21.6H61.4901V23.6444H58.9123V31.7333Z" fill="white"/>
<path d="M89.1342 29.6V31.7333H83.4453V21.6H85.5786V29.6H89.1342Z" fill="white"/>
<path d="M46.5562 31.7333C46.3784 31.7333 46.2895 31.7333 46.2006 31.7333H44.334V21.6H46.5562V31.7333Z" fill="white"/>
<path d="M31.1776 3.11111C29.8442 3.11111 29.0442 2.13333 29.4887 1.06667C29.6665 0.355556 30.2887 0 30.9998 0C31.7998 0 32.6887 0.266667 32.8665 1.33333C33.0442 2.4 32.2442 3.02222 31.5331 3.11111C31.3553 3.11111 31.2665 3.11111 31.1776 3.11111Z" fill="white"/>
</g>
</g>
<defs>
<clipPath id="clip0_361_7947">
<rect width="88.8888" height="32" fill="white" transform="translate(0.333984)"/>
</clipPath>
</defs>
</svg>
