<svg width="143" height="32" viewBox="0 0 143 32" fill="none" xmlns="http://www.w3.org/2000/svg">
<path d="M0.386719 23.55V9.08996H5.90672C8.72672 9.08996 10.4467 10.53 10.4467 12.91C10.4467 14.57 9.72672 15.69 8.28672 16.29C9.88672 16.81 10.7067 17.97 10.7067 19.69C10.7067 22.09 8.96672 23.55 6.10672 23.55H0.386719ZM5.78672 10.83H2.34672V15.47H5.90672C7.52672 15.47 8.44672 14.59 8.44672 13.09C8.44672 11.65 7.48672 10.83 5.78672 10.83ZM6.06672 17.17H2.34672V21.81H6.06672C7.74672 21.81 8.68672 20.95 8.68672 19.45C8.68672 18.01 7.72672 17.17 6.06672 17.17Z" fill="white"/>
<path d="M15.7002 23.79C13.6002 23.79 12.3602 22.61 12.3602 20.83C12.3602 19.03 13.7002 17.91 16.0002 17.73L19.0802 17.49V17.21C19.0802 15.57 18.1002 14.99 16.7802 14.99C15.2002 14.99 14.3002 15.69 14.3002 16.87H12.6602C12.6602 14.83 14.3402 13.49 16.8602 13.49C19.2802 13.49 20.9202 14.77 20.9202 17.41V23.55H19.3202L19.1202 21.97C18.6202 23.09 17.2802 23.79 15.7002 23.79ZM16.2402 22.33C18.0202 22.33 19.1002 21.17 19.1002 19.33V18.81L16.6002 19.01C14.9402 19.17 14.2602 19.81 14.2602 20.77C14.2602 21.81 15.0202 22.33 16.2402 22.33Z" fill="white"/>
<path d="M25.4438 23.55H23.5637V8.82996H25.4438V23.55Z" fill="white"/>
<path d="M31.0713 23.79C28.9713 23.79 27.7313 22.61 27.7313 20.83C27.7313 19.03 29.0713 17.91 31.3713 17.73L34.4513 17.49V17.21C34.4513 15.57 33.4713 14.99 32.1513 14.99C30.5713 14.99 29.6712 15.69 29.6712 16.87H28.0312C28.0312 14.83 29.7113 13.49 32.2313 13.49C34.6513 13.49 36.2913 14.77 36.2913 17.41V23.55H34.6912L34.4912 21.97C33.9912 23.09 32.6513 23.79 31.0713 23.79ZM31.6112 22.33C33.3913 22.33 34.4712 21.17 34.4712 19.33V18.81L31.9713 19.01C30.3113 19.17 29.6313 19.81 29.6313 20.77C29.6313 21.81 30.3912 22.33 31.6112 22.33Z" fill="white"/>
<path d="M39.8348 11.45C39.1348 11.45 38.5948 10.89 38.5948 10.21C38.5948 9.50996 39.1348 8.96996 39.8348 8.96996C40.4948 8.96996 41.0748 9.50996 41.0748 10.21C41.0748 10.89 40.4948 11.45 39.8348 11.45ZM36.4148 27.99L36.7348 26.29C37.1148 26.39 37.3348 26.43 37.6348 26.43C38.5348 26.43 38.8948 25.91 38.8948 24.81V13.77H40.7748V24.99C40.7748 26.95 39.6948 28.17 37.7948 28.17C37.2948 28.17 36.9748 28.15 36.4148 27.99Z" fill="white"/>
<path d="M44.4242 11.45C43.7442 11.45 43.1842 10.89 43.1842 10.21C43.1842 9.50996 43.7442 8.96996 44.4242 8.96996C45.1042 8.96996 45.6642 9.50996 45.6642 10.21C45.6642 10.89 45.1042 11.45 44.4242 11.45ZM43.5042 23.55V13.77H45.3842V23.55H43.5042Z" fill="white"/>
<path d="M53.0623 12.99C53.0623 10.51 55.0623 8.82996 58.0423 8.82996C60.8023 8.82996 62.5823 10.37 62.7423 12.87H60.7623C60.6623 11.43 59.6423 10.59 58.0223 10.59C56.2023 10.59 55.0223 11.51 55.0223 12.93C55.0223 14.09 55.6823 14.79 57.0423 15.11L59.4223 15.67C61.7823 16.21 62.9823 17.49 62.9823 19.53C62.9823 22.13 60.9623 23.79 57.8823 23.79C54.9423 23.79 52.9823 22.25 52.8623 19.77H54.8623C54.9023 21.15 56.0623 22.03 57.8823 22.03C59.8023 22.03 61.0223 21.13 61.0223 19.69C61.0223 18.55 60.4023 17.83 59.0223 17.51L56.6423 16.97C54.2823 16.43 53.0623 15.07 53.0623 12.99Z" fill="white"/>
<path d="M70.7253 13.69V15.41H69.8853C68.1053 15.41 67.0053 16.49 67.0053 18.37V23.55H65.1253V13.79H66.8853L67.0053 15.27C67.4053 14.25 68.3853 13.57 69.7253 13.57C70.0653 13.57 70.3453 13.61 70.7253 13.69Z" fill="white"/>
<path d="M73.4086 11.45C72.7286 11.45 72.1686 10.89 72.1686 10.21C72.1686 9.50996 72.7286 8.96996 73.4086 8.96996C74.0886 8.96996 74.6486 9.50996 74.6486 10.21C74.6486 10.89 74.0886 11.45 73.4086 11.45ZM72.4886 23.55V13.77H74.3686V23.55H72.4886Z" fill="white"/>
<path d="M78.978 23.55H77.098V13.77H78.798L78.998 15.27C79.618 14.15 80.858 13.49 82.238 13.49C84.818 13.49 85.998 15.07 85.998 17.57V23.55H84.118V17.99C84.118 16.01 83.198 15.21 81.758 15.21C79.998 15.21 78.978 16.47 78.978 18.37V23.55Z" fill="white"/>
<path d="M89.5219 11.45C88.8419 11.45 88.2819 10.89 88.2819 10.21C88.2819 9.50996 88.8419 8.96996 89.5219 8.96996C90.2019 8.96996 90.7619 9.50996 90.7619 10.21C90.7619 10.89 90.2019 11.45 89.5219 11.45ZM88.6019 23.55V13.77H90.4819V23.55H88.6019Z" fill="white"/>
<path d="M95.9512 23.55L92.0113 13.77H94.0113L96.1513 19.23C96.4913 20.15 96.7713 20.97 96.9313 21.57C97.0913 20.93 97.4113 20.09 97.7513 19.23L99.9313 13.77H101.891L97.8112 23.55H95.9512Z" fill="white"/>
<path d="M105.798 23.79C103.698 23.79 102.458 22.61 102.458 20.83C102.458 19.03 103.798 17.91 106.098 17.73L109.178 17.49V17.21C109.178 15.57 108.198 14.99 106.878 14.99C105.298 14.99 104.398 15.69 104.398 16.87H102.758C102.758 14.83 104.438 13.49 106.958 13.49C109.378 13.49 111.018 14.77 111.018 17.41V23.55H109.418L109.218 21.97C108.718 23.09 107.378 23.79 105.798 23.79ZM106.338 22.33C108.118 22.33 109.198 21.17 109.198 19.33V18.81L106.698 19.01C105.038 19.17 104.358 19.81 104.358 20.77C104.358 21.81 105.118 22.33 106.338 22.33Z" fill="white"/>
<path d="M112.821 20.71H114.621C114.621 21.71 115.381 22.31 116.621 22.31C117.941 22.31 118.701 21.77 118.701 20.87C118.701 20.21 118.381 19.81 117.361 19.55L115.641 19.15C113.901 18.73 113.081 17.87 113.081 16.43C113.081 14.63 114.601 13.49 116.761 13.49C118.901 13.49 120.301 14.69 120.341 16.55H118.541C118.501 15.57 117.841 14.95 116.701 14.95C115.521 14.95 114.861 15.47 114.861 16.37C114.861 17.03 115.341 17.47 116.301 17.71L118.021 18.13C119.681 18.53 120.501 19.29 120.501 20.75C120.501 22.61 118.901 23.79 116.581 23.79C114.281 23.79 112.821 22.57 112.821 20.71Z" fill="white"/>
<path d="M125.446 23.79C123.346 23.79 122.106 22.61 122.106 20.83C122.106 19.03 123.446 17.91 125.746 17.73L128.826 17.49V17.21C128.826 15.57 127.846 14.99 126.526 14.99C124.946 14.99 124.046 15.69 124.046 16.87H122.406C122.406 14.83 124.086 13.49 126.606 13.49C129.026 13.49 130.666 14.77 130.666 17.41V23.55H129.066L128.866 21.97C128.366 23.09 127.026 23.79 125.446 23.79ZM125.986 22.33C127.766 22.33 128.846 21.17 128.846 19.33V18.81L126.346 19.01C124.686 19.17 124.006 19.81 124.006 20.77C124.006 21.81 124.766 22.33 125.986 22.33Z" fill="white"/>
<path d="M135.15 23.55H133.27V13.77H134.97L135.17 15.27C135.79 14.15 137.03 13.49 138.41 13.49C140.99 13.49 142.17 15.07 142.17 17.57V23.55H140.29V17.99C140.29 16.01 139.37 15.21 137.93 15.21C136.17 15.21 135.15 16.47 135.15 18.37V23.55Z" fill="white"/>
</svg>
