<svg width="163" height="32" viewBox="0 0 163 32" fill="none" xmlns="http://www.w3.org/2000/svg">
<path d="M4.05431 22.5276C2.87639 21.906 1.92751 21.0225 1.2404 19.9101C0.553278 18.7976 0.193359 17.5215 0.193359 16.0818C0.193359 14.6422 0.520558 13.3661 1.17496 12.2536C1.82935 11.1084 2.77823 10.225 3.95615 9.57058C5.13406 8.91619 6.47558 8.58899 7.94797 8.58899C9.19133 8.58899 10.3365 8.78531 11.3181 9.21067C12.3324 9.63602 13.1832 10.2577 13.8703 11.0757L11.7435 13.0716C10.7619 11.9591 9.55125 11.4029 8.11157 11.4356C7.22813 11.4356 6.44286 11.6319 5.72302 12.0573C5.0359 12.4499 4.47966 13.0062 4.11975 13.6933C3.72711 14.3804 3.56351 15.1984 3.56351 16.0818C3.56351 16.9653 3.75983 17.7505 4.18519 18.4704C4.57782 19.1575 5.13406 19.7137 5.82118 20.0737C6.5083 20.4663 7.32629 20.6299 8.20973 20.6299C9.6494 20.6299 10.86 20.0409 11.8089 18.8957L13.9684 20.8589C13.2813 21.7096 12.4633 22.3313 11.449 22.7894C10.4347 23.2475 9.32221 23.4765 8.07885 23.4765C6.57374 23.4765 5.26494 23.1493 4.05431 22.5276Z" fill="white"/>
<path d="M26.1737 20.3353L26.2064 23.0511L15.3434 23.1492L15.3107 20.9897L20.8076 15.6891C21.3966 15.1329 21.7892 14.6421 21.9855 14.2167C22.1818 13.7914 22.28 13.3987 22.28 13.0061C22.28 12.4171 22.0837 11.9918 21.691 11.6973C21.2984 11.4028 20.7094 11.2392 19.9569 11.2392C19.3352 11.2392 18.7463 11.3701 18.2555 11.5991C17.7647 11.8282 17.3393 12.2208 16.9794 12.6789L14.5254 11.141C15.0816 10.2903 15.8342 9.63593 16.8158 9.14513C17.7974 8.65434 18.9099 8.4253 20.1859 8.39258C21.2657 8.39258 22.1818 8.55618 22.9998 8.88338C23.8178 9.21057 24.4395 9.70137 24.8976 10.3558C25.3557 10.9774 25.5847 11.73 25.5847 12.6134C25.5847 13.3987 25.4211 14.1185 25.1266 14.8057C24.7994 15.4928 24.1778 16.2781 23.2289 17.1615L19.9569 20.3026L26.1737 20.3353Z" fill="white"/>
<path d="M42.1074 8.52356L36.0215 22.953L32.7495 22.9857L26.3691 8.65444L29.9683 8.62172L34.451 18.863L38.8027 8.52356H42.1074Z" fill="white"/>
<path d="M54.672 21.7751V23.0839H44.4961V8.68713H54.3448V9.99593H46.0012V15.1002H53.4286V16.409H46.0012V21.7423H54.672V21.7751Z" fill="white"/>
<path d="M69.7562 8.68713V23.0839H68.5129L59.2532 11.4029V23.0839H57.748V8.68713H58.9914L68.2511 20.3681V8.68713H69.7562Z" fill="white"/>
<path d="M76.7264 10.0286H71.6875V8.71985H83.3031V10.0286H78.2642V23.0839H76.7591V10.0286H76.7264Z" fill="white"/>
<path d="M86.3459 21.6115C85.2989 20.5317 84.7754 18.9939 84.7754 16.9325V8.68713H86.2805V16.8671C86.2805 18.5358 86.6731 19.7792 87.4257 20.5972C88.1783 21.4152 89.258 21.8405 90.6977 21.8405C92.1374 21.8405 93.2171 21.4152 93.9697 20.5972C94.7222 19.7792 95.1149 18.5358 95.1149 16.8671V8.68713H96.5873V16.9325C96.5873 18.9612 96.0637 20.5317 95.0494 21.6115C94.0024 22.6912 92.5627 23.2147 90.6977 23.2147C88.8654 23.2147 87.393 22.6585 86.3459 21.6115Z" fill="white"/>
<path d="M110.49 23.0839L107.218 18.4704C106.858 18.5031 106.466 18.5358 106.073 18.5358H102.212V23.0839H100.707V8.68713H106.106C107.938 8.68713 109.378 9.11249 110.425 9.99593C111.472 10.8794 111.995 12.09 111.995 13.6278C111.995 14.7403 111.701 15.6892 111.145 16.4745C110.588 17.2597 109.77 17.816 108.723 18.1432L112.224 23.0839H110.49ZM109.28 16.2781C110.032 15.6565 110.425 14.773 110.425 13.6278C110.425 12.4499 110.032 11.5665 109.28 10.9448C108.527 10.3231 107.447 9.99593 106.008 9.99593H102.179V17.1943H106.008C107.447 17.227 108.527 16.8998 109.28 16.2781Z" fill="white"/>
<path d="M125.184 21.7751V23.0839H115.008V8.68713H124.856V9.99593H116.513V15.1002H123.94V16.409H116.513V21.7423H125.184V21.7751Z" fill="white"/>
<path d="M129.142 22.6912C128.161 22.364 127.408 21.906 126.885 21.3497L127.474 20.1718C127.997 20.6953 128.684 21.1207 129.535 21.4479C130.386 21.7751 131.302 21.9387 132.218 21.9387C133.494 21.9387 134.476 21.7096 135.13 21.2188C135.785 20.7608 136.112 20.1391 136.112 19.3865C136.112 18.7976 135.948 18.3395 135.588 18.0123C135.228 17.6851 134.803 17.3906 134.312 17.227C133.789 17.0307 133.102 16.8344 132.185 16.6053C131.106 16.3436 130.255 16.0818 129.601 15.8201C128.946 15.5583 128.39 15.1657 127.932 14.6749C127.474 14.1514 127.245 13.4642 127.245 12.5481C127.245 11.8283 127.441 11.1739 127.834 10.5522C128.226 9.96322 128.815 9.47243 129.601 9.11251C130.386 8.75259 131.367 8.58899 132.545 8.58899C133.363 8.58899 134.181 8.68715 134.967 8.91619C135.752 9.14523 136.439 9.43971 136.995 9.86506L136.472 11.0757C135.883 10.6831 135.228 10.3886 134.541 10.1923C133.854 9.99594 133.2 9.89778 132.513 9.89778C131.237 9.89778 130.288 10.1268 129.666 10.6176C129.044 11.1084 128.717 11.7301 128.717 12.4827C128.717 13.0716 128.881 13.5297 129.241 13.8569C129.601 14.2168 130.026 14.4786 130.549 14.6422C131.073 14.8385 131.793 15.0348 132.676 15.2638C133.723 15.5256 134.574 15.7874 135.228 16.0491C135.883 16.3109 136.439 16.6708 136.897 17.1943C137.355 17.7178 137.584 18.4049 137.584 19.2884C137.584 20.0082 137.388 20.6626 136.995 21.2843C136.603 21.8732 136.014 22.364 135.196 22.6912C134.378 23.0512 133.396 23.2148 132.218 23.2148C131.138 23.2148 130.124 23.0512 129.142 22.6912Z" fill="white"/>
<path d="M162.288 18.6667L152.636 8L142.787 18.6667L147.728 18.6994L146.55 24H158.918L157.217 18.6994L162.288 18.6667Z" fill="white"/>
</svg>
