<svg width="105" height="32" viewBox="0 0 105 32" fill="none" xmlns="http://www.w3.org/2000/svg">
<g clip-path="url(#clip0_361_8025)">
<path d="M35.7697 15.7997C35.7395 15.0554 35.857 14.3124 36.1155 13.6137C36.3739 12.9149 36.7681 12.2743 37.2754 11.7287C37.7827 11.1832 38.393 10.7434 39.0711 10.4349C39.7492 10.1264 40.4817 9.95525 41.2262 9.93127H41.4576C44.3354 9.93127 46.0339 11.6241 46.5361 13.6047L44.7473 14.2028C44.5866 13.4648 44.1659 12.8091 43.562 12.3554C42.9581 11.9017 42.2112 11.6802 41.4576 11.7313C39.5955 11.7313 37.7277 13.0912 37.7277 15.8336C37.7277 18.576 39.5503 19.8851 41.4802 19.8851C42.2375 19.9058 42.98 19.6718 43.5887 19.2207C44.1973 18.7695 44.6371 18.1273 44.8376 17.3966L46.5925 17.9609C46.2896 19.0755 45.6158 20.0535 44.6823 20.7336C43.7488 21.4137 42.6114 21.7553 41.4576 21.702C39.9754 21.7292 38.5431 21.1668 37.4754 20.1383C36.4078 19.1098 35.7922 17.6995 35.7641 16.2173C35.7584 16.0819 35.7641 15.9408 35.7697 15.7997Z" fill="white"/>
<path d="M50.0735 21.4424H48.2227V9.89734H50.0735V14.4115C50.3422 14.0928 50.6801 13.8397 51.0615 13.6715C51.4429 13.5033 51.8576 13.4245 52.2742 13.441C54.1871 13.441 55.0955 14.8122 55.0955 16.5219V21.4424H53.3124V16.8492C53.3659 16.4576 53.2633 16.0608 53.0269 15.7441C52.7904 15.4275 52.439 15.2164 52.0484 15.1564C51.9378 15.145 51.8262 15.145 51.7155 15.1564C51.2875 15.1564 50.877 15.3264 50.5744 15.6291C50.2717 15.9317 50.1017 16.3422 50.1017 16.7702C50.0989 16.8172 50.0989 16.8643 50.1017 16.9113L50.0735 21.4424Z" fill="white"/>
<path d="M59.2492 16.9959L61.2355 16.6856C61.6869 16.6292 61.7997 16.3978 61.7997 16.1213C61.7997 15.4668 61.3596 14.942 60.3326 14.942C59.9448 14.9106 59.5602 15.0334 59.2623 15.2838C58.9644 15.5341 58.7772 15.8918 58.7414 16.2793V16.364L57.0485 15.9859C57.1896 14.6429 58.4084 13.4467 60.3157 13.4467C62.7082 13.4467 63.6167 14.8009 63.6167 16.3809V20.2349C63.6148 20.6525 63.6468 21.0695 63.7126 21.4819H62.0198C61.9588 21.1546 61.9342 20.8215 61.9465 20.4888C61.6895 20.8842 61.3334 21.2054 60.9136 21.4203C60.4938 21.6351 60.025 21.7361 59.5539 21.7133C58.9106 21.7664 58.2724 21.5622 57.7795 21.1454C57.2865 20.7286 56.979 20.1333 56.9244 19.49C56.9244 19.4505 56.9244 19.411 56.9244 19.3772C56.8962 17.9496 57.9175 17.1822 59.2492 16.9959ZM61.811 18.243V17.8875L59.7853 18.1922C59.5103 18.2009 59.2493 18.3156 59.0569 18.5122C58.8644 18.7089 58.7554 18.9723 58.7527 19.2474C58.7548 19.3837 58.7841 19.5183 58.8388 19.6431C58.8936 19.768 58.9726 19.8808 59.0713 19.9748C59.1701 20.0688 59.2866 20.1422 59.414 20.1908C59.5414 20.2393 59.6772 20.262 59.8135 20.2574H59.8981C60.1291 20.2816 60.3626 20.2599 60.5851 20.1934C60.8076 20.127 61.0148 20.0172 61.1947 19.8703C61.3746 19.7234 61.5237 19.5424 61.6333 19.3377C61.743 19.133 61.811 18.9086 61.8336 18.6775C61.8416 18.532 61.8322 18.3862 61.8054 18.243H61.811Z" fill="white"/>
<path d="M66.7648 9.73931C66.9239 9.73708 67.0818 9.76629 67.2295 9.82526C67.3773 9.88424 67.5119 9.97182 67.6257 10.083C67.7395 10.1941 67.8302 10.3267 67.8926 10.473C67.955 10.6193 67.9878 10.7765 67.9893 10.9356C67.9893 11.1737 67.9189 11.4065 67.7869 11.6047C67.655 11.8029 67.4674 11.9576 67.2477 12.0495C67.028 12.1414 66.7861 12.1662 66.5523 12.121C66.3186 12.0758 66.1034 11.9624 65.9339 11.7952C65.7643 11.6281 65.648 11.4145 65.5995 11.1814C65.551 10.9482 65.5725 10.706 65.6614 10.4851C65.7502 10.2642 65.9023 10.0744 66.0986 9.93971C66.295 9.80501 66.5268 9.73137 66.7648 9.72803V9.73931ZM65.862 21.4762V13.6779H67.7128V21.4424L65.862 21.4762Z" fill="white"/>
<path d="M71.9272 21.4424H70.082V13.678H71.8821V14.7106C72.1167 14.3141 72.4538 13.988 72.8579 13.7666C73.262 13.5452 73.7182 13.4367 74.1787 13.4523C76.0746 13.4523 77.0001 14.8235 77.0001 16.5332V21.4424H75.1549V16.8492C75.1549 15.8956 74.7204 15.1225 73.558 15.1225C73.3431 15.124 73.1306 15.1678 72.9326 15.2514C72.7346 15.335 72.5551 15.4568 72.4042 15.6098C72.2533 15.7628 72.134 15.944 72.0531 16.1431C71.9722 16.3422 71.9314 16.5553 71.9329 16.7702C71.9329 16.8323 71.9329 16.8944 71.9329 16.9564L71.9272 21.4424Z" fill="white"/>
<path d="M79.2363 21.4424V9.89734H81.0872V21.4424H79.2363Z" fill="white"/>
<path d="M84.3877 9.73939C84.6259 9.73828 84.859 9.80796 85.0575 9.9396C85.2561 10.0712 85.411 10.2589 85.5027 10.4787C85.5943 10.6986 85.6186 10.9407 85.5724 11.1744C85.5262 11.4081 85.4116 11.6227 85.2432 11.7912C85.0748 11.9596 84.8601 12.0742 84.6264 12.1204C84.3927 12.1666 84.1506 12.1423 83.9308 12.0506C83.7109 11.959 83.5233 11.804 83.3916 11.6055C83.26 11.407 83.1903 11.1738 83.1914 10.9357C83.1944 10.6193 83.3213 10.3167 83.5451 10.093C83.7688 9.86932 84.0713 9.74234 84.3877 9.73939ZM83.4792 21.4763V13.678H85.3131V21.4424L83.4792 21.4763Z" fill="white"/>
<path d="M89.5559 21.4424H87.7051V13.678H89.5051V14.7106C89.7402 14.3145 90.0774 13.9888 90.4814 13.7674C90.8853 13.5461 91.3413 13.4373 91.8017 13.4523C93.6977 13.4523 94.6231 14.8235 94.6231 16.5332V21.4424H92.7723V16.8492C92.8257 16.4577 92.7232 16.0608 92.4867 15.7442C92.2503 15.4275 91.8989 15.2164 91.5083 15.1564C91.3957 15.1451 91.2823 15.1451 91.1697 15.1564C90.7387 15.1609 90.3268 15.3352 90.0236 15.6416C89.7203 15.948 89.5502 16.3617 89.5503 16.7928C89.5445 16.8585 89.5445 16.9246 89.5503 16.9903L89.5559 21.4424Z" fill="white"/>
<path d="M100.938 16.9564L104.194 21.4706H101.937L99.6801 18.2712L98.7265 19.2756V21.4424H96.8926V9.89734H98.7265V16.8153L101.706 13.678H104.16L100.938 16.9564Z" fill="white"/>
<path d="M13.8586 6.77129L21.8601 11.3645V20.596L13.8812 25.2174L5.8854 20.6355V11.4096L13.8586 6.77129ZM13.8586 0L10.9244 1.69282L2.93423 6.33116L0 8.02398V24.0324L2.93423 25.7253L10.9357 30.3185L13.8699 32.0113L16.8041 30.3185L24.7774 25.6914L27.7116 23.9986V7.96755L24.7774 6.27473L16.7816 1.69282L13.8473 0H13.8586Z" fill="white"/>
</g>
<defs>
<clipPath id="clip0_361_8025">
<rect width="104.194" height="32" fill="white"/>
</clipPath>
</defs>
</svg>
