<svg width="126" height="32" viewBox="0 0 126 32" fill="none" xmlns="http://www.w3.org/2000/svg">
<g clip-path="url(#clip0_361_8083)">
<path d="M30.5579 8.0624L29.8514 6.8572C29.6643 6.52474 29.228 6.40006 28.8955 6.58707C28.8332 6.62863 28.7916 6.64941 28.7501 6.71175L27.1708 8.29097C26.9423 8.54032 26.9007 8.91435 27.0877 9.18448C27.6695 10.0572 28.1267 11.013 28.4592 12.0105C30.641 18.5143 27.1501 25.5585 20.6669 27.7403C19.3994 28.1767 18.0488 28.3845 16.6981 28.3845C14.6617 28.3845 12.6669 27.8858 10.8799 26.9507L13.5605 24.2702C18.1319 25.9949 23.2643 23.6884 24.989 19.1169C25.841 16.8312 25.7371 14.3169 24.6773 12.1143C24.5111 11.7611 24.0747 11.6156 23.7215 11.7819C23.6592 11.8234 23.576 11.865 23.5345 11.9273L21.9345 13.5273C21.7682 13.6936 21.6851 13.9429 21.7475 14.1923L21.8929 14.7741C22.5579 17.6416 20.7916 20.4884 17.9241 21.1741C16.615 21.4858 15.2436 21.278 14.0799 20.613L13.3734 20.2182C13.1033 20.052 12.7501 20.1143 12.5215 20.3221L5.97603 26.8676C5.70591 27.1377 5.70591 27.5949 5.97603 27.865C5.99681 27.8858 6.01759 27.9066 6.03837 27.9273L6.99422 28.6754C9.77863 30.8156 13.1864 31.9793 16.6981 31.9585C25.5085 31.9377 32.6566 24.7897 32.6566 15.9793C32.6358 13.1741 31.9085 10.452 30.5579 8.0624Z" fill="white"/>
<path d="M26.3811 3.3039C23.5967 1.16364 20.1889 2.14325e-06 16.6772 0.0207814C7.8668 0.0207814 0.71875 7.18961 0.71875 16C0.71875 18.7636 1.44602 21.4857 2.81745 23.8961L3.50316 25.1013C3.69018 25.4338 4.12654 25.5584 4.47979 25.3714C4.54212 25.3507 4.58368 25.3091 4.62524 25.2675L6.20446 23.6883C6.43303 23.439 6.47459 23.0649 6.28758 22.7948C5.70576 21.9221 5.24862 20.9662 4.91615 19.9688C2.73433 13.4649 6.22524 6.42078 12.7084 4.23896C13.9759 3.8026 15.3265 3.59481 16.6772 3.59481C18.7136 3.59481 20.7084 4.09351 22.4954 5.04935L19.8356 7.68831C15.2642 5.96364 10.1317 8.24935 8.40706 12.8416C8.03303 13.839 7.82524 14.9195 7.82524 15.9792C7.82524 16.1247 7.8668 16.7896 7.88758 16.9143C7.99148 17.9325 8.28238 18.9299 8.71875 19.8442C8.88498 20.1974 9.32135 20.3429 9.67459 20.1766C9.73693 20.1351 9.82005 20.0935 9.86161 20.0312L11.4616 18.4312C11.6278 18.2649 11.711 18.0156 11.6486 17.7662L11.5032 17.1844C10.8382 14.3169 12.6045 11.4701 15.4512 10.7844C16.7603 10.4727 18.1317 10.6805 19.3162 11.3455L20.0226 11.7403C20.2928 11.9065 20.646 11.8442 20.8746 11.6364L27.42 5.09091C27.6902 4.82078 27.6902 4.36364 27.42 4.09351C27.3993 4.07273 27.3785 4.05195 27.3577 4.03117L26.3811 3.3039Z" fill="white"/>
<path d="M53.2686 20.3637C53.0192 20.1559 52.666 20.1766 52.4374 20.3844C51.4192 21.174 50.214 21.9221 48.4894 21.9221C45.3102 21.9221 42.7127 19.2416 42.7127 15.9377C42.7127 12.6338 45.2894 9.93249 48.4686 9.93249C49.84 9.93249 51.3361 10.5143 52.4166 11.4701C52.5413 11.6156 52.7283 11.6987 52.9153 11.6987C53.0816 11.6779 53.227 11.5948 53.3309 11.4701L54.3699 10.4104C54.4946 10.2857 54.5777 10.0987 54.5777 9.91171C54.5777 9.7247 54.4738 9.53768 54.3491 9.43379C52.5413 7.85456 50.7335 7.14807 48.4478 7.14807C43.6063 7.14807 39.6582 11.1169 39.6582 16C39.6582 20.8624 43.5855 24.7896 48.4478 24.7896C50.6504 24.8104 52.7907 23.9585 54.3699 22.4C54.5153 22.2546 54.5777 22.0676 54.5777 21.8598C54.5777 21.6935 54.5153 21.5481 54.3907 21.4442L53.2686 20.3637ZM60.8115 7.39742H59.253C58.8998 7.4182 58.6089 7.70911 58.5881 8.06236V23.8961C58.5881 24.2702 58.879 24.5611 59.253 24.5611H60.8115C61.1647 24.5403 61.4764 24.2494 61.4764 23.8961V8.06236C61.4556 7.68833 61.1647 7.39742 60.8115 7.39742ZM79.3673 12.7169C79.3673 9.78704 76.9569 7.39742 73.9647 7.39742H67.5024C67.1283 7.39742 66.8374 7.68833 66.8374 8.06236V23.8961C66.8374 24.2702 67.1283 24.5611 67.5024 24.5611H69.04C69.3933 24.5403 69.705 24.2494 69.705 23.8961V18.0156H72.9465L76.0426 24.2286C76.1673 24.4364 76.3751 24.5611 76.6037 24.5611H78.453C78.6816 24.5611 78.9102 24.4572 79.0348 24.2494C79.1595 24.0416 79.1595 23.7714 79.0348 23.5637L75.8764 17.7039C78.0374 16.7273 79.3673 14.8572 79.3673 12.7169ZM76.4582 12.7585C76.4582 14.2546 75.2322 15.5221 73.7777 15.5221H69.7673V10.1403H73.7777C75.2322 10.1403 76.4582 11.3455 76.4582 12.7585ZM96.24 20.3637C95.9907 20.1559 95.6374 20.1766 95.4088 20.3844C94.3907 21.174 93.1855 21.9221 91.4608 21.9221C88.2816 21.9221 85.6842 19.2416 85.6842 15.9377C85.6842 12.6338 88.2608 9.93249 91.44 9.93249C92.8115 9.93249 94.3076 10.5143 95.3881 11.4701C95.5128 11.6156 95.6998 11.6987 95.8868 11.6987C96.053 11.6779 96.1985 11.5948 96.3024 11.4701L97.3413 10.4104C97.466 10.2857 97.5491 10.0987 97.5491 9.91171C97.5491 9.7247 97.466 9.53768 97.3205 9.43379C95.5127 7.85456 93.705 7.14807 91.44 7.14807C86.5985 7.14807 82.6504 11.1169 82.6504 16C82.6504 20.8624 86.5777 24.7896 91.44 24.7896C93.6426 24.8104 95.7829 23.9585 97.3621 22.4C97.5076 22.2546 97.5699 22.0676 97.5699 21.8598C97.5699 21.6935 97.5076 21.5481 97.3829 21.4442L96.24 20.3637ZM110.661 21.9013H104.448V8.06236C104.427 7.70911 104.136 7.39742 103.783 7.39742H102.204C101.83 7.39742 101.539 7.68833 101.539 8.06236V23.8961C101.539 24.2702 101.83 24.5611 102.204 24.5611H110.661C111.035 24.5611 111.326 24.2702 111.326 23.8961V22.587C111.326 22.213 111.035 21.9013 110.661 21.9013ZM124.749 10.0779C125.123 10.0779 125.414 9.78703 125.414 9.41301V8.08314C125.414 7.70911 125.123 7.4182 124.749 7.4182H115.253C114.879 7.4182 114.588 7.70911 114.588 8.08314V23.8961C114.588 24.2702 114.879 24.5611 115.253 24.5611H124.749C125.123 24.5611 125.414 24.2702 125.414 23.8961V22.587C125.414 22.213 125.123 21.9221 124.749 21.9221H117.456V17.2052H123.585C123.96 17.2052 124.25 16.9143 124.25 16.5403V15.2104C124.25 14.8364 123.939 14.5455 123.585 14.5455H117.456V10.0987H124.749V10.0779Z" fill="white"/>
</g>
<defs>
<clipPath id="clip0_361_8083">
<rect width="124.883" height="32" fill="white" transform="translate(0.59375)"/>
</clipPath>
</defs>
</svg>
