<svg width="108" height="32" viewBox="0 0 108 32" fill="none" xmlns="http://www.w3.org/2000/svg">
<path d="M21.7972 11.2398C17.8739 11.2398 14.8083 14.2182 14.8083 18.2053C14.8083 22.1924 17.7964 25.1452 21.7972 25.1452C25.7981 25.1452 28.8382 22.1414 28.8382 18.1798C28.8382 14.2436 25.85 11.2398 21.7972 11.2398ZM21.8237 22.2718C19.5895 22.2718 17.9523 20.5365 17.9523 18.2062C17.9523 15.8495 19.563 14.1152 21.7972 14.1152C24.0579 14.1152 25.6942 15.8759 25.6942 18.2062C25.6942 20.5365 24.058 22.2718 21.8237 22.2718ZM29.695 14.2701H31.6439V24.8874H34.7615V11.4986H29.695V14.2701ZM6.96249 14.1142C8.59969 14.1142 9.89866 15.124 10.3918 16.6259H13.6917C13.0936 13.4152 10.4437 11.2398 6.98896 11.2398C3.06558 11.2398 0 14.2182 0 18.2062C0 22.1943 2.98813 25.1462 6.98896 25.1462C10.3663 25.1462 13.0682 22.9708 13.6662 19.7336H10.3918C9.92415 21.2355 8.62518 22.2718 6.98798 22.2718C4.72728 22.2718 3.14302 20.5365 3.14302 18.2062C3.144 15.8495 4.70277 14.1142 6.96249 14.1142ZM88.9301 16.9112L86.6439 16.5749C85.5528 16.42 84.7734 16.0573 84.7734 15.2024C84.7734 14.2701 85.7871 13.8044 87.1635 13.8044C88.6703 13.8044 89.632 14.4515 89.8399 15.5132H92.8535C92.5153 12.8202 90.4369 11.2408 87.2419 11.2408C83.9421 11.2408 81.7598 12.9241 81.7598 15.3064C81.7598 17.5847 83.1891 18.9062 86.0724 19.3199L88.3586 19.6562C89.4762 19.8111 90.0997 20.2522 90.0997 21.0806C90.0997 22.1424 89.0085 22.5826 87.5017 22.5826C85.6567 22.5826 84.6175 21.8316 84.4616 20.6924H81.3961C81.6823 23.308 83.7342 25.1462 87.4753 25.1462C90.8791 25.1462 93.1388 23.5923 93.1388 20.9248C93.1388 18.5425 91.5026 17.2994 88.9301 16.9112ZM33.2027 5.98317C32.0596 5.98317 31.2018 6.81157 31.2018 7.95074C31.2018 9.08991 32.0586 9.91831 33.2027 9.91831C34.3458 9.91831 35.2036 9.08991 35.2036 7.95074C35.2036 6.81157 34.3458 5.98317 33.2027 5.98317ZM78.954 16.0828C78.954 13.1829 77.1874 11.2408 73.4464 11.2408C69.9131 11.2408 67.9387 13.028 67.5485 15.773H70.6406C70.7964 14.7113 71.6278 13.8309 73.3944 13.8309C74.9796 13.8309 75.759 14.5299 75.759 15.3848C75.759 16.4985 74.3297 16.7828 72.563 16.9641C70.1729 17.2229 67.2113 18.0513 67.2113 21.1591C67.2113 23.5678 69.0044 25.1207 71.8621 25.1207C74.0963 25.1207 75.4992 24.1884 76.2012 22.712C76.3051 24.0325 77.2923 24.8874 78.6697 24.8874H80.4883V22.1169H78.955V16.0828H78.954ZM75.8884 19.4493C75.8884 21.2365 74.3297 22.5571 72.4327 22.5571C71.2631 22.5571 70.2759 22.0649 70.2759 21.0297C70.2759 19.7091 71.8611 19.3464 73.316 19.1915C74.7189 19.0621 75.4982 18.7513 75.8884 18.1553V19.4493ZM59.339 11.2398C57.5979 11.2398 56.1431 11.9653 55.1039 13.1819V5.85376H51.9864V24.8874H55.0519V23.1266C56.0911 24.3952 57.5724 25.1462 59.339 25.1462C63.0801 25.1462 65.9123 22.1943 65.9123 18.2062C65.9123 14.2182 63.0281 11.2398 59.339 11.2398ZM58.8714 22.2718C56.6372 22.2718 55 20.5365 55 18.2062C55 15.8759 56.6627 14.1152 58.8969 14.1152C61.1576 14.1152 62.7418 15.8504 62.7418 18.2062C62.7418 20.5365 61.1056 22.2718 58.8714 22.2718ZM44.5298 11.2398C42.5034 11.2398 41.1779 12.0682 40.3985 13.2339V11.4986H37.3065V24.8864H40.424V17.6102C40.424 15.5642 41.723 14.1142 43.6455 14.1142C45.4385 14.1142 46.5552 15.3828 46.5552 17.222V24.8874H49.6727V16.9896C49.6737 13.6221 47.9336 11.2398 44.5298 11.2398ZM108 17.7661C108 13.9339 105.194 11.2408 101.427 11.2408C97.4259 11.2408 94.4897 14.2446 94.4897 18.2062C94.4897 22.3757 97.6337 25.1462 101.479 25.1462C104.727 25.1462 107.273 23.2296 107.922 20.5111H104.674C104.206 21.7022 103.063 22.3757 101.53 22.3757C99.5287 22.3757 98.0219 21.1326 97.6847 18.9572H107.999V17.7661H108ZM97.867 16.7298C98.3611 14.8652 99.764 13.9593 101.375 13.9593C103.141 13.9593 104.492 14.9691 104.804 16.7298H97.867Z" fill="white"/>
</svg>
