<svg width="132" height="32" viewBox="0 0 132 32" fill="none" xmlns="http://www.w3.org/2000/svg">
<g clip-path="url(#clip0_361_8051)">
<path d="M6.34917 29.7242C4.38173 28.4302 2.86478 26.5988 1.79569 24.2274C0.727906 21.8585 0.193359 19.1134 0.193359 15.9946C0.193359 12.8758 0.789635 10.1783 1.98218 7.8081C3.17474 5.43798 4.84011 3.60657 6.97699 2.31126C9.11385 1.01858 11.5449 0.371582 14.2715 0.371582C16.3164 0.371582 18.1513 0.69112 19.7772 1.3302C21.4032 1.96927 22.7743 2.88167 23.8894 4.06607C25.0045 5.2518 25.8096 6.65536 26.306 8.27554L20.5443 10.2865C20.0793 8.97665 19.328 7.94804 18.2905 7.19942C17.2529 6.45075 15.9592 6.07705 14.4107 6.07705C12.8622 6.07705 11.4136 6.48244 10.2526 7.29314C9.09151 8.10385 8.19976 9.25788 7.58111 10.7552C6.96124 12.2526 6.65127 13.9995 6.65127 15.9946C6.65127 17.9898 6.94548 19.7445 7.53385 21.2564C8.12222 22.7696 8.98117 23.9303 10.112 24.741C11.2428 25.5517 12.5812 25.9571 14.131 25.9571C16.1129 25.9571 17.5996 25.4183 18.5912 24.3435C19.5815 23.2674 20.1082 21.9034 20.1712 20.2503H14.9676V15.3384H26.3967V31.1027H22.4933L21.239 27.1269H20.8673C20.0005 28.5622 18.9235 29.6767 17.6377 30.4715C16.3519 31.2664 14.8888 31.6639 13.2471 31.6639C10.6137 31.6639 8.31397 31.0168 6.34788 29.7229L6.34917 29.7242Z" fill="white"/>
<path d="M30.927 23.8774C31.8398 21.9906 32.9483 20.5329 34.2486 19.5043C35.5501 18.4757 37.2063 17.4154 39.2197 16.3234C40.6132 15.5747 41.6889 14.9357 42.4493 14.4062C43.2084 13.8767 43.835 13.2297 44.3314 12.4652C44.8265 11.702 45.0748 10.7896 45.0748 9.72932C45.0748 8.57529 44.7031 7.64046 43.9597 6.92212C43.2163 6.20514 42.1788 5.846 40.847 5.846C39.5152 5.846 38.4619 6.17344 37.5951 6.8284C36.7282 7.48329 35.9993 8.60563 35.4109 10.1968L29.6964 8.69941C30.1915 6.8284 31.0203 5.26899 32.1826 4.0212C33.3436 2.77474 34.699 1.85442 36.2475 1.26155C37.796 0.670016 39.422 0.372925 41.1254 0.372925C43.5105 0.372925 45.4767 0.786213 47.0265 1.61278C48.575 2.43936 49.7136 3.53002 50.4412 4.88739C51.1689 6.24347 51.5327 7.71701 51.5327 9.30809C51.5327 11.3666 51.0756 13.1135 50.1615 14.5475C49.2474 15.9827 48.1638 17.1196 46.9095 17.9621C45.6553 18.8045 44.0359 19.7248 42.054 20.7217C40.8457 21.3145 39.8777 21.8216 39.1501 22.2414C38.4225 22.6627 37.7868 23.1459 37.2457 23.6913C36.7033 24.2379 36.3552 24.8374 36.2003 25.4923H51.6719V31.1053H29.6031C29.5716 28.1741 30.0129 25.7656 30.927 23.8788V23.8774Z" fill="white"/>
<path d="M68.1609 0.936646H73.0865V1.75266C72.6132 1.79359 72.268 1.84773 72.0526 1.91639C71.836 1.98505 71.6809 2.06956 71.5861 2.17122C71.492 2.2729 71.3972 2.44059 71.3025 2.67166L66.7831 14.1394H65.7092L60.9861 2.22272C60.9322 2.08672 60.8719 1.99165 60.8036 1.93751C60.7353 1.88338 60.6079 1.84509 60.4187 1.82528C60.2296 1.80548 59.8986 1.7817 59.4258 1.75397V0.937969H64.7566V1.75397C64.3117 1.76718 63.9357 1.78434 63.6323 1.80548C63.3289 1.8266 63.1258 1.85037 63.0243 1.87677C62.9234 1.9045 62.8723 1.95204 62.8723 2.01938C62.8723 2.06031 62.8852 2.12105 62.9129 2.20292L65.7301 9.65131L66.5812 11.9158L67.4126 9.65131L69.9868 2.69279C70.0538 2.52906 70.0877 2.40758 70.0877 2.32571C70.0877 2.20292 70.0298 2.10785 69.916 2.0405C69.8003 1.97316 69.6046 1.91506 69.3277 1.86753C69.0502 1.82 68.6612 1.78303 68.1621 1.7553V0.939285L68.1609 0.936646Z" fill="white"/>
<path d="M74.0195 9.5893V9.63023C74.0195 10.7592 74.2995 11.6161 74.8601 12.2011C75.4213 12.786 76.2145 13.0791 77.2416 13.0791C77.8625 13.0791 78.417 12.9709 78.9025 12.753C79.3887 12.5351 79.7949 12.2156 80.1192 11.7944L80.2804 11.937C80.0373 12.6988 79.6189 13.2878 79.0238 13.7023C78.4287 14.117 77.6933 14.3243 76.8145 14.3243C75.9358 14.3243 75.1389 14.1342 74.4638 13.7526C73.7875 13.3723 73.2669 12.8348 72.9032 12.1403C72.5382 11.4471 72.3555 10.6298 72.3555 9.69232C72.3555 8.75484 72.5315 7.94143 72.8822 7.17164C73.233 6.40315 73.7309 5.79051 74.3715 5.33497C75.0127 4.87943 75.7598 4.651 76.6109 4.651C77.4619 4.651 78.1382 4.86227 78.7192 5.28348C79.2995 5.70469 79.7395 6.29096 80.0361 7.03829C80.3333 7.78696 80.4619 8.6373 80.4213 9.5893H74.017H74.0195ZM74.9419 6.42696C74.5032 6.93004 74.2152 7.65096 74.0798 8.58979H78.7216C78.6675 7.58364 78.4509 6.84549 78.073 6.37546C77.6945 5.90671 77.1942 5.67167 76.5727 5.67167C75.9518 5.67167 75.3801 5.92387 74.9419 6.42696Z" fill="white"/>
<path d="M90.8425 12.8124C90.8425 12.9616 90.8659 13.0646 90.9132 13.1188C90.9606 13.1729 91.072 13.2112 91.248 13.231C91.424 13.2508 91.7619 13.2759 92.2622 13.3023V14.0985H89.2215V8.03786C89.2215 7.35786 89.0455 6.84813 88.6948 6.50752C88.3428 6.16813 87.8369 5.99781 87.1754 5.99781C86.7563 5.99781 86.3243 6.11005 85.8775 6.33453C85.4314 6.55896 85.0671 6.86136 84.7834 7.24296V12.8137C84.7834 12.963 84.8074 13.0659 84.8548 13.1201C84.9016 13.1742 85.0172 13.2125 85.1988 13.2323C85.3809 13.2521 85.7225 13.2772 86.2215 13.3036V14.0998H81.7434V13.3036C82.2437 13.2759 82.5834 13.2521 82.7662 13.2323C82.9489 13.2125 83.0628 13.1742 83.1102 13.1201C83.1575 13.0659 83.1815 12.9643 83.1815 12.8137V6.14174C83.1815 6.03346 83.1539 5.9582 83.0997 5.91727C83.0462 5.87634 82.8935 5.84597 82.6443 5.82484C82.3945 5.80504 82.0597 5.78127 81.6406 5.75354V4.87547C82.384 4.84774 83.0092 4.82133 83.5151 4.7936C84.0216 4.76587 84.424 4.73287 84.7206 4.69194L84.68 6.6514L84.7403 6.75306C85.0911 6.08628 85.5336 5.57 86.0683 5.20161C86.6012 4.83454 87.2197 4.651 87.9225 4.651C88.4492 4.651 88.9366 4.7672 89.3815 4.99827C89.8283 5.22934 90.1828 5.56604 90.4455 6.00838C90.7095 6.45072 90.8406 6.97755 90.8406 7.59023V12.8137L90.8425 12.8124Z" fill="white"/>
<path d="M94.7127 13.5782C94.3201 13.1227 94.1256 12.473 94.1256 11.6293V5.89476H92.4844V4.87409L93.3761 4.83316C93.6462 4.80543 93.8358 4.74469 93.9435 4.64962C94.0511 4.55455 94.1391 4.34329 94.2075 4.01715C94.2745 3.69101 94.3558 3.10606 94.4505 2.26233H95.7268V4.87409H98.8684V5.89476H95.7268V11.4457C95.7268 11.9766 95.8413 12.3713 96.0708 12.6288C96.301 12.8876 96.6591 13.0171 97.1453 13.0171C97.8887 13.0171 98.469 12.7516 98.8881 12.2208L99.0499 12.3635C98.8475 12.9615 98.5299 13.4277 98.0973 13.7617C97.6653 14.0958 97.1176 14.2622 96.4561 14.2622C95.685 14.2622 95.1041 14.0351 94.7127 13.5782Z" fill="white"/>
<path d="M108.87 13.1081C108.918 13.1425 109.066 13.1689 109.317 13.19C109.566 13.2098 109.902 13.2349 110.32 13.2613V14.0984L109.854 14.1182C109.246 14.1314 108.726 14.1486 108.294 14.1697C107.862 14.1895 107.516 14.2212 107.26 14.2608L107.281 12.4043L107.221 12.3026C106.896 12.9286 106.473 13.4224 105.954 13.7815C105.434 14.142 104.816 14.3229 104.1 14.3229C103.533 14.3229 103.036 14.2001 102.61 13.9558C102.185 13.7115 101.854 13.3642 101.618 12.9153C101.382 12.4664 101.263 11.9435 101.263 11.3441V6.14034C101.263 6.03206 101.239 5.9568 101.192 5.91587C101.145 5.87493 100.996 5.84456 100.746 5.82344C100.496 5.80363 100.161 5.77987 99.7422 5.75214V4.87406C100.498 4.84634 101.137 4.81993 101.657 4.7922C102.177 4.76448 102.586 4.73146 102.884 4.69053V10.9545C102.884 11.6214 103.042 12.1284 103.361 12.4743C103.678 12.8216 104.147 12.9946 104.77 12.9946C105.242 12.9946 105.689 12.8863 106.108 12.6684C106.527 12.4505 106.884 12.1521 107.183 11.7705V6.13902C107.183 6.03074 107.159 5.95548 107.111 5.91454C107.065 5.87362 106.916 5.84325 106.666 5.82212C106.417 5.80231 106.082 5.77854 105.663 5.75082V4.87275C106.42 4.84502 107.058 4.81861 107.578 4.79088C108.098 4.76315 108.506 4.73014 108.804 4.68921V12.8929C108.804 13.0025 108.828 13.0738 108.876 13.1068L108.87 13.1081Z" fill="white"/>
<path d="M117.534 4.71169V6.42556C117.412 6.39787 117.216 6.38464 116.946 6.38464C116.365 6.38464 115.824 6.52458 115.324 6.80322C114.824 7.08181 114.398 7.48716 114.048 8.01664V12.8124C114.048 12.9616 114.078 13.0646 114.138 13.1187C114.198 13.1728 114.347 13.2111 114.584 13.2309C114.821 13.2507 115.264 13.2758 115.912 13.3022V14.0984H111.007V13.3022C111.507 13.2745 111.848 13.2507 112.03 13.2309C112.213 13.2111 112.327 13.1728 112.374 13.1187C112.421 13.0646 112.445 12.9629 112.445 12.8124V6.14036C112.445 6.03209 112.418 5.95683 112.363 5.9159C112.31 5.87497 112.157 5.8446 111.908 5.82347C111.658 5.80366 111.323 5.7799 110.904 5.75217V4.8741C111.648 4.84637 112.273 4.81996 112.779 4.79223C113.286 4.7645 113.688 4.7315 113.984 4.69056L113.944 7.32347L114.004 7.42513C114.41 6.55498 114.862 5.87761 115.362 5.39434C115.862 4.91107 116.443 4.66943 117.105 4.66943C117.172 4.66943 117.314 4.68264 117.531 4.71037L117.534 4.71169Z" fill="white"/>
<path d="M120.17 9.5893V9.63023C120.17 10.7592 120.45 11.6161 121.01 12.2011C121.572 12.786 122.365 13.0791 123.392 13.0791C124.013 13.0791 124.567 12.9709 125.054 12.753C125.539 12.5351 125.945 12.2156 126.27 11.7944L126.431 11.937C126.188 12.6988 125.769 13.2878 125.174 13.7023C124.579 14.117 123.844 14.3243 122.965 14.3243C122.086 14.3243 121.289 14.1342 120.614 13.7526C119.939 13.3723 119.417 12.8348 119.054 12.1403C118.689 11.4471 118.506 10.6298 118.506 9.69232C118.506 8.75484 118.682 7.94143 119.033 7.17164C119.383 6.40315 119.88 5.79051 120.522 5.33497C121.163 4.87943 121.91 4.651 122.761 4.651C123.612 4.651 124.289 4.86227 124.87 5.28348C125.45 5.70469 125.89 6.29096 126.186 7.03829C126.484 7.78696 126.612 8.6373 126.572 9.5893H120.167H120.17ZM121.092 6.42696C120.654 6.93004 120.366 7.65096 120.231 8.58979H124.872C124.818 7.58364 124.601 6.84549 124.223 6.37546C123.845 5.90671 123.345 5.67167 122.723 5.67167C122.102 5.67167 121.53 5.92387 121.092 6.42696Z" fill="white"/>
<path d="M63.5689 26.0626V29.8496C63.5689 29.9842 63.6015 30.0754 63.6698 30.1229C63.7369 30.1705 63.9418 30.2074 64.2834 30.2338C64.6249 30.2615 65.0846 30.2813 65.6612 30.2945V31.1039H60.0898V30.2945C60.5732 30.2813 60.958 30.2615 61.247 30.2338C61.5346 30.2074 61.7066 30.1705 61.7603 30.1229C61.8145 30.0754 61.8403 29.9842 61.8403 29.8496V19.2996C61.8403 19.1649 61.8132 19.0738 61.7603 19.0262C61.7066 18.9787 61.5359 18.9417 61.247 18.9153C60.958 18.8889 60.5732 18.8678 60.0898 18.8546V18.0452H65.6009C66.6742 18.0452 67.588 18.2036 68.3455 18.5205C69.1037 18.8374 69.676 19.2903 70.0649 19.8779C70.4538 20.4655 70.6483 21.1573 70.6483 21.9535C70.6483 22.7498 70.4538 23.4786 70.0649 24.1006C69.676 24.7211 69.0889 25.2044 68.3049 25.549C67.5209 25.8937 66.5517 26.0653 65.3985 26.0653H63.5677L63.5689 26.0626ZM63.5689 19.0156V25.0697H65.3997C66.5794 25.0697 67.4446 24.8135 67.9954 24.2999C68.5443 23.7876 68.82 23.0033 68.82 21.9509C68.82 21.0332 68.548 20.3136 68.0058 19.7947C67.4618 19.2758 66.6538 19.0156 65.5825 19.0156H63.5714H63.5689Z" fill="white"/>
<path d="M80.5644 29.7691C80.4438 30.255 80.2087 30.6366 79.8604 30.9138C79.5115 31.1898 79.1158 31.3284 78.6746 31.3284C78.2333 31.3284 77.8906 31.1964 77.6487 30.9336C77.4075 30.6708 77.2862 30.2959 77.2862 29.81V29.3241L77.2062 29.2435C76.8844 29.9051 76.4684 30.4174 75.9601 30.7818C75.4506 31.1462 74.8462 31.3284 74.1502 31.3284C73.6407 31.3284 73.2019 31.2241 72.8327 31.0142C72.4635 30.8055 72.1786 30.5151 71.9779 30.1427C71.7767 29.7716 71.6758 29.3425 71.6758 28.8566C71.6758 28.1542 71.9029 27.5983 72.3601 27.1863C72.8155 26.7743 73.5601 26.4403 74.5927 26.1841L77.1472 25.516V24.4227C77.1472 23.8563 77.0173 23.4311 76.7546 23.1472C76.493 22.8633 76.061 22.722 75.4567 22.722C74.8524 22.722 74.3533 22.9043 74.0382 23.2687C73.7232 23.6331 73.5724 24.1256 73.5853 24.7462L72.037 24.5442C72.037 23.9777 72.1773 23.4879 72.4598 23.0759C72.741 22.6639 73.1466 22.347 73.6758 22.1239C74.205 21.9007 74.8253 21.7898 75.5367 21.7898C76.6364 21.7898 77.4481 22.0222 77.9706 22.4883C78.4936 22.9544 78.7546 23.6199 78.7546 24.4835V29.1814C78.7546 29.4785 78.8087 29.6977 78.9152 29.839C79.0229 29.9803 79.1958 30.0516 79.4376 30.0516C79.6253 30.0516 79.8001 30.0146 79.9607 29.9407C80.1207 29.8667 80.2758 29.7558 80.4229 29.6066L80.5632 29.7691H80.5644ZM76.1096 29.8192C76.5047 29.5961 76.8506 29.2765 77.1459 28.858V26.4073L75.2561 26.9539C74.5582 27.1427 74.0659 27.3725 73.7767 27.6419C73.4881 27.9126 73.3447 28.277 73.3447 28.7351C73.3447 29.1933 73.4721 29.5287 73.7269 29.7783C73.9816 30.0278 74.3429 30.1532 74.813 30.1532C75.2832 30.1532 75.7146 30.0423 76.1109 29.8192H76.1096Z" fill="white"/>
<path d="M87.5245 21.7899V23.4906C87.4039 23.4642 87.2094 23.4496 86.9417 23.4496C86.3651 23.4496 85.8279 23.5882 85.3325 23.8642C84.8365 24.1415 84.415 24.5429 84.0654 25.0698V29.8285C84.0654 29.9777 84.0956 30.0781 84.1559 30.1322C84.2162 30.1863 84.3633 30.2233 84.5983 30.2431C84.8334 30.2629 85.2722 30.2867 85.9159 30.3144V31.104H81.0482V30.3144C81.5448 30.288 81.8839 30.2642 82.0636 30.2431C82.2451 30.2233 82.3577 30.1863 82.4051 30.1322C82.4525 30.0781 82.4759 29.9777 82.4759 29.8285V23.2066C82.4759 23.0984 82.4488 23.0244 82.3959 22.9835C82.3423 22.9426 82.191 22.9122 81.943 22.8924C81.695 22.8726 81.3627 22.8488 80.9473 22.8211V21.9509C81.6839 21.9245 82.3054 21.8968 82.8082 21.8704C83.3116 21.844 83.711 21.8096 84.0051 21.7687L83.9639 24.3805L84.0248 24.4822C84.4267 23.6186 84.8759 22.9466 85.3719 22.4672C85.8685 21.9879 86.4451 21.7489 87.1017 21.7489C87.1688 21.7489 87.3091 21.7621 87.5245 21.7899Z" fill="white"/>
<path d="M90.7625 30.589C90.3735 30.1374 90.1791 29.493 90.1791 28.6546V22.965H88.5508V21.9522L89.4357 21.9113C89.7034 21.8848 89.8917 21.8241 89.9994 21.7291C90.1071 21.6353 90.1939 21.4254 90.2603 21.1019C90.3274 20.7784 90.4074 20.1974 90.5022 19.3602H91.7699V21.9522H94.8874V22.965H91.7699V28.4724C91.7699 28.9992 91.8837 29.3914 92.1114 29.6476C92.3385 29.9037 92.6942 30.0318 93.1779 30.0318C93.9145 30.0318 94.4911 29.769 94.9071 29.2421L95.0689 29.3834C94.8677 29.9776 94.5526 30.4398 94.1231 30.7712C93.6935 31.1026 93.1514 31.2677 92.4935 31.2677C91.7286 31.2677 91.1526 31.0419 90.7637 30.589H90.7625Z" fill="white"/>
<path d="M104.962 29.8299C104.962 29.979 104.986 30.0794 105.033 30.1335C105.081 30.1876 105.191 30.2246 105.366 30.2444C105.54 30.2643 105.875 30.288 106.372 30.3158V31.1054H103.355V25.0909C103.355 24.4162 103.18 23.9091 102.832 23.5724C102.482 23.2358 101.981 23.0667 101.323 23.0667C100.906 23.0667 100.479 23.1777 100.036 23.4008C99.5933 23.6239 99.2308 23.9236 98.9496 24.3013V29.8299C98.9496 29.979 98.9736 30.0794 99.0209 30.1335C99.0677 30.1876 99.1809 30.2246 99.3619 30.2444C99.5434 30.2643 99.8813 30.288 100.377 30.3158V31.1054H95.933V30.3158C96.4296 30.2894 96.768 30.2655 96.9483 30.2444C97.1293 30.2246 97.2425 30.1876 97.2899 30.1335C97.3366 30.0794 97.3606 29.979 97.3606 29.8299V23.208C97.3606 23.0998 97.333 23.0258 97.2806 22.9849C97.2265 22.9439 97.0757 22.9135 96.8271 22.8937C96.5791 22.874 96.2468 22.8502 95.832 22.8225V21.9523C96.5686 21.9259 97.1896 21.8982 97.693 21.8718C98.1957 21.8454 98.5951 21.811 98.8893 21.7701L98.8486 23.7137L98.909 23.8154C99.2573 23.1539 99.6973 22.6415 100.226 22.2771C100.756 21.9127 101.369 21.7305 102.066 21.7305C102.589 21.7305 103.073 21.8454 103.515 22.0751C103.958 22.3049 104.31 22.6389 104.571 23.0773C104.833 23.5156 104.964 24.0385 104.964 24.6473V29.8311L104.962 29.8299Z" fill="white"/>
<path d="M109.043 26.6305V26.6715C109.043 27.7924 109.322 28.6428 109.879 29.2225C110.436 29.8035 111.222 30.0926 112.241 30.0926C112.857 30.0926 113.408 29.9843 113.891 29.7691C114.374 29.5539 114.776 29.2356 115.098 28.8171L115.26 28.9583C115.018 29.715 114.603 30.2986 114.013 30.7105C113.424 31.1225 112.692 31.3285 111.821 31.3285C110.95 31.3285 110.158 31.1397 109.489 30.762C108.817 30.3844 108.302 29.851 107.94 29.1617C107.578 28.4738 107.396 27.6631 107.396 26.7322C107.396 25.8013 107.571 24.9945 107.919 24.2313C108.267 23.4694 108.761 22.8607 109.398 22.4092C110.035 21.9563 110.776 21.7305 111.62 21.7305C112.465 21.7305 113.136 21.9404 113.713 22.359C114.289 22.7775 114.725 23.3585 115.019 24.1006C115.313 24.8427 115.442 25.6864 115.401 26.6318H109.046L109.043 26.6305ZM109.959 23.4919C109.523 23.991 109.238 24.7067 109.104 25.6389H113.71C113.656 24.6406 113.442 23.9078 113.067 23.4417C112.691 22.9756 112.194 22.7432 111.579 22.7432C110.963 22.7432 110.395 22.9928 109.959 23.4919Z" fill="white"/>
<path d="M123.185 21.7899V23.4906C123.064 23.4642 122.87 23.4496 122.602 23.4496C122.025 23.4496 121.488 23.5882 120.993 23.8642C120.497 24.1415 120.075 24.5429 119.726 25.0698V29.8285C119.726 29.9777 119.756 30.0781 119.816 30.1322C119.877 30.1863 120.024 30.2233 120.259 30.2431C120.494 30.2629 120.932 30.2867 121.576 30.3144V31.104H116.709V30.3144C117.205 30.288 117.543 30.2642 117.724 30.2431C117.905 30.2233 118.018 30.1863 118.065 30.1322C118.113 30.0781 118.137 29.9777 118.137 29.8285V23.2066C118.137 23.0984 118.11 23.0244 118.056 22.9835C118.002 22.9426 117.852 22.9122 117.603 22.8924C117.355 22.8726 117.023 22.8488 116.607 22.8211V21.9509C117.345 21.9245 117.966 21.8968 118.469 21.8704C118.972 21.844 119.37 21.8096 119.665 21.7687L119.625 24.3805L119.685 24.4822C120.087 23.6186 120.536 22.9466 121.033 22.4672C121.529 21.9879 122.105 21.7489 122.762 21.7489C122.829 21.7489 122.97 21.7621 123.185 21.7899Z" fill="white"/>
<path d="M128.735 25.7998C129.634 26.0164 130.281 26.3399 130.677 26.7716C131.072 27.2035 131.27 27.7778 131.27 28.4935C131.27 29.0876 131.142 29.5973 130.888 30.0225C130.633 30.4476 130.291 30.7685 129.862 30.9838C129.433 31.199 128.95 31.3073 128.413 31.3073C127.167 31.3073 126.261 30.8214 125.699 29.8495L125.357 31.2676H124.552L124.512 27.9059H125.174C125.469 28.7298 125.875 29.3332 126.391 29.7188C126.907 30.103 127.507 30.2958 128.192 30.2958C128.701 30.2958 129.114 30.1678 129.429 29.9116C129.744 29.6555 129.902 29.3108 129.902 28.879C129.902 28.4882 129.781 28.1739 129.539 27.9376C129.298 27.7012 128.868 27.5019 128.252 27.3407L126.864 26.9961C126.019 26.7941 125.416 26.4732 125.054 26.0349C124.691 25.5965 124.512 25.0393 124.512 24.3646C124.512 23.8919 124.626 23.4574 124.853 23.0587C125.08 22.6612 125.406 22.343 125.829 22.1067C126.251 21.8703 126.757 21.7528 127.347 21.7528C128.42 21.7528 129.191 22.1846 129.66 23.0481L129.962 21.7726H130.826L130.867 24.8914H130.143C129.942 24.1494 129.614 23.6027 129.158 23.2515C128.702 22.9003 128.173 22.7246 127.569 22.7246C127.033 22.7246 126.617 22.8527 126.323 23.1089C126.027 23.365 125.88 23.6899 125.88 24.0807C125.88 24.4319 125.987 24.7158 126.202 24.931C126.416 25.1476 126.798 25.3231 127.349 25.4579L128.736 25.8025L128.735 25.7998Z" fill="white"/>
</g>
<defs>
<clipPath id="clip0_361_8051">
<rect width="131.077" height="32" fill="white" transform="translate(0.193359)"/>
</clipPath>
</defs>
</svg>
