<svg width="110" height="32" viewBox="0 0 110 32" fill="none" xmlns="http://www.w3.org/2000/svg">
<g clip-path="url(#clip0_361_7991)">
<mask id="mask0_361_7991" style="mask-type:luminance" maskUnits="userSpaceOnUse" x="10" y="-1" width="90" height="33">
<path d="M99.2208 -0.00012207H10.332V31.9999H99.2208V-0.00012207Z" fill="white"/>
</mask>
<g mask="url(#mask0_361_7991)">
<path d="M84.821 13.6889V16.4444H84.4654C81.1765 16.4444 77.7987 16.4444 74.5098 16.4444C74.1543 16.4444 74.1543 16.3555 74.1543 16.0889C74.1543 11.7333 74.1543 7.37776 74.1543 2.93331C74.1543 2.66665 74.2432 2.57776 74.5098 2.57776C77.7987 2.57776 81.0876 2.57776 84.3765 2.57776C84.6432 2.57776 84.7321 2.66665 84.7321 2.93331C84.7321 3.64443 84.7321 4.35554 84.7321 4.97776C84.7321 5.24442 84.6432 5.33331 84.3765 5.33331C82.1543 5.33331 79.9321 5.33331 77.7098 5.33331H77.2654V6.31109C77.2654 6.75554 77.2654 7.28887 77.2654 7.8222C77.2654 7.99998 77.3543 8.08887 77.621 8.08887C79.5765 8.08887 81.5321 8.08887 83.4876 8.08887C83.7543 8.08887 83.8432 8.17776 83.8432 8.53331C83.8432 9.15554 83.8432 9.77776 83.8432 10.4C83.8432 10.8444 83.8432 10.8444 83.3987 10.8444C81.5321 10.8444 79.5765 10.8444 77.621 10.8444C77.3543 10.8444 77.2654 10.9333 77.2654 11.2C77.2654 11.9111 77.2654 12.6222 77.2654 13.3333C77.2654 13.6889 77.3543 13.7778 77.621 13.7778C79.9321 13.6889 82.1543 13.7778 84.3765 13.7778L84.821 13.6889Z" fill="white"/>
<path d="M13.4431 8.08887H19.132V2.57776C19.2209 2.57776 19.3098 2.57776 19.3987 2.57776C20.2876 2.57776 21.0876 2.57776 21.9765 2.57776C22.1542 2.57776 22.2431 2.66665 22.2431 2.84443C22.2431 7.28887 22.2431 11.7333 22.2431 16.1778C22.2431 16.2666 22.2431 16.3555 22.2431 16.4444H19.132V10.9333H13.4431V11.2889C13.4431 12.8889 13.4431 14.4889 13.4431 16.0889C13.4431 16.3555 13.4431 16.4444 13.0876 16.4444C12.2876 16.4444 11.4876 16.4444 10.5987 16.4444C10.4209 16.4444 10.332 16.4444 10.332 16.1778C10.332 11.7333 10.332 7.28887 10.332 2.84443C10.332 2.66665 10.4209 2.57776 10.6876 2.57776C11.4876 2.57776 12.2876 2.57776 13.1765 2.57776C13.4431 2.57776 13.4431 2.66665 13.4431 2.84443C13.4431 4.44443 13.4431 6.04443 13.4431 7.64443V8.08887Z" fill="white"/>
<path d="M63.4873 16.4444H60.3762C60.3762 16.3555 60.3762 16.1778 60.3762 16.0889C60.3762 14.4889 60.3762 12.8889 60.3762 11.2889C60.3762 11.0222 60.2873 10.8444 60.0206 10.8444C58.3317 10.9333 56.6428 10.9333 55.0428 10.8444C54.6873 10.8444 54.6873 10.9333 54.6873 11.2C54.6873 12.8889 54.6873 14.4889 54.6873 16.0889C54.6873 16.3555 54.5984 16.4444 54.3317 16.4444C53.5317 16.4444 52.7317 16.4444 51.9317 16.4444C51.7539 16.4444 51.6651 16.4444 51.5762 16.4444V2.57776H53.0873C53.5317 2.57776 53.8873 2.57776 54.3317 2.57776C54.5984 2.57776 54.6873 2.66665 54.6873 2.84443C54.6873 4.44443 54.6873 6.04443 54.6873 7.64443C54.6873 7.99998 54.7762 8.08887 55.0428 8.08887C56.7317 8.08887 58.3317 8.08887 60.0206 8.08887C60.2873 8.08887 60.3762 7.99998 60.3762 7.73331C60.3762 6.13331 60.3762 4.53331 60.3762 2.93331C60.3762 2.66665 60.4651 2.57776 60.7317 2.57776C61.5317 2.57776 62.3317 2.57776 63.1317 2.57776C63.3984 2.57776 63.4873 2.57776 63.4873 2.84443C63.4873 7.28887 63.4873 11.7333 63.4873 16.1778C63.4873 16.2666 63.4873 16.3555 63.4873 16.4444Z" fill="white"/>
<path d="M38.5095 16.4443H38.065C37.3539 16.4443 36.5539 16.4443 35.7539 16.4443C35.3095 16.5332 35.1317 16.3554 35.0428 15.9999C34.7762 15.1999 34.4206 14.4888 34.1539 13.7777C33.9762 13.4221 33.8873 13.3332 33.5317 13.3332C31.8428 13.3332 30.1539 13.3332 28.4651 13.3332C28.1095 13.3332 27.9317 13.4221 27.8428 13.7777C27.5762 14.5777 27.2206 15.4665 26.8651 16.2665C26.7762 16.2665 26.7762 16.3554 26.6873 16.3554C26.6873 16.4443 26.5984 16.4443 26.5984 16.4443C25.6206 16.4443 24.6428 16.4443 23.754 16.4443C23.6651 16.4443 23.6651 16.4443 23.5762 16.4443C23.6651 16.3554 23.6651 16.2665 23.6651 16.1777C25.6206 11.7332 27.5762 7.19988 29.4428 2.75544C29.5317 2.66655 29.5317 2.57766 29.6206 2.48877C29.7095 2.48877 29.7984 2.48877 29.9762 2.48877C30.6873 2.48877 31.3984 2.48877 32.1984 2.48877C32.2873 2.48877 32.3762 2.48877 32.4651 2.48877C32.4651 2.57766 32.5539 2.66655 32.5539 2.75544C34.5095 7.19988 36.3762 11.6443 38.3317 16.0888C38.3317 16.1777 38.4206 16.3554 38.5095 16.4443ZM31.0428 6.31099H30.9539L29.1762 10.5777H32.8206C32.1984 9.15543 31.6651 7.73321 31.0428 6.31099Z" fill="white"/>
<path d="M38.6875 14.4888C39.3097 13.6888 39.8431 12.9777 40.4653 12.2666C40.8208 12.5333 41.1764 12.7999 41.5319 12.9777C42.6875 13.6888 44.0208 14.1333 45.3542 13.8666C45.7097 13.7777 45.9764 13.6888 46.2431 13.511C46.4208 13.4222 46.5097 13.2444 46.5986 13.0666C46.6875 12.9777 46.6875 12.7999 46.6875 12.6222C46.6875 12.4444 46.6875 12.2666 46.5986 12.0888C46.5097 11.911 46.3319 11.8222 46.2431 11.7333C45.7097 11.4666 45.1764 11.1999 44.643 11.0222C43.7542 10.7555 42.9542 10.5777 42.1542 10.311C42.0653 10.311 42.0653 10.311 41.9764 10.311C40.0208 9.59994 39.2208 8.44438 39.2208 6.57772C39.2208 4.71105 40.2875 3.28883 42.1542 2.66661C44.2875 2.04438 46.3319 2.39994 48.2875 3.37772C48.643 3.64438 48.9986 3.91105 49.3542 4.08883C48.8208 4.88883 48.2875 5.68883 47.7542 6.48883C47.5764 6.31105 47.3986 6.22216 47.1319 6.04438C46.3319 5.59994 45.4431 5.15549 44.4653 5.15549C44.0208 5.06661 43.5764 5.15549 43.1319 5.24438C42.8653 5.33327 42.6875 5.42216 42.5986 5.59994C42.4208 5.77772 42.3319 5.95549 42.3319 6.22216C42.2431 6.75549 42.5097 7.19994 42.9542 7.37772C43.6653 7.64438 44.3764 7.82216 45.0875 8.08883C45.9764 8.35549 46.7764 8.62216 47.5764 8.97772C49.0875 9.59994 49.7986 10.7555 49.7986 12.3555C49.7986 13.9555 49.0875 15.1999 47.5764 15.9999C46.3319 16.711 44.9986 16.7999 43.5764 16.6222C41.7986 16.4444 40.1986 15.7333 38.8653 14.6666C38.7764 14.5777 38.6875 14.4888 38.6875 14.4888Z" fill="white"/>
<path d="M85.3555 2.578C85.5332 2.578 85.6221 2.578 85.711 2.578C86.6888 2.578 87.6666 2.578 88.6444 2.578C88.7332 2.578 88.8221 2.578 88.911 2.66689C88.9999 2.66689 89.0888 2.75578 89.0888 2.84467C90.0666 4.53356 91.1332 6.13356 92.111 7.82245C92.111 7.91134 92.1999 8.00022 92.2888 8.08911C92.4666 7.82245 92.6444 7.55578 92.8221 7.28911C93.711 5.778 94.5999 4.26689 95.5777 2.84467C95.5777 2.75578 95.7555 2.578 95.8443 2.578C96.911 2.578 98.0666 2.578 99.2221 2.578C99.1332 2.75578 99.0443 2.84467 98.9555 2.93356C97.3555 5.51134 95.6666 8.08911 93.9777 10.6669C93.8888 10.8447 93.7999 11.0224 93.7999 11.2891C93.7999 12.8891 93.7999 14.4002 93.7999 16.0002V16.4447H90.6888V16.0891C90.6888 14.4891 90.6888 12.8891 90.6888 11.378C90.6888 11.1113 90.6888 10.9336 90.511 10.7558C88.911 8.08911 87.2221 5.51134 85.5332 2.84467C85.4444 2.75578 85.4444 2.66689 85.3555 2.578Z" fill="white"/>
<path d="M77.0879 29.6002C74.7768 29.6002 73.0879 28.0002 73.0879 25.778C73.0879 23.4668 74.8657 21.778 77.0879 21.778C79.399 21.778 81.0879 23.4668 81.0879 25.6891C81.0879 27.9113 79.399 29.6002 77.0879 29.6002ZM79.6657 25.778C79.6657 24.178 78.599 23.0224 77.0879 23.0224C75.6657 23.0224 74.5101 24.178 74.5101 25.6891C74.5101 27.2002 75.6657 28.3557 77.0879 28.3557C78.599 28.3557 79.6657 27.2891 79.6657 25.778Z" fill="white"/>
<path d="M70.3322 26.6666L72.2877 29.511C71.7544 29.511 71.3099 29.511 70.7766 29.511C70.6877 29.511 70.5988 29.3332 70.5099 29.2443C70.0655 28.5332 69.5322 27.8221 68.9988 27.111C68.9099 27.0221 68.9099 26.9332 68.821 26.9332C68.7322 26.8443 68.6433 26.8443 68.5544 26.8443C68.1099 26.8443 67.6655 26.8443 67.1322 26.8443V29.511H65.7988V21.9554C65.8877 21.9554 65.9766 21.9554 66.0655 21.9554C67.1322 21.9554 68.2877 21.9554 69.4433 21.9554C69.7099 21.9554 69.9766 21.9554 70.2433 22.0443C71.3988 22.3999 72.021 23.111 72.1099 24.1777C72.1988 25.2443 71.5766 26.1332 70.5099 26.5777C70.5099 26.5777 70.421 26.6666 70.3322 26.6666ZM67.221 23.1999V25.5999C68.021 25.5999 68.821 25.6888 69.621 25.5999C70.3322 25.511 70.6877 25.0666 70.6877 24.3554C70.6877 23.7332 70.2433 23.1999 69.5322 23.1999C68.7322 23.111 68.021 23.1999 67.221 23.1999Z" fill="white"/>
<path d="M63.8422 22.8444L63.0422 23.8222C62.5977 23.5555 62.1533 23.2888 61.62 23.1111C59.6644 22.6666 58.0644 24.2666 58.42 26.3111C58.7755 27.9111 60.1977 28.7111 61.7977 28.2666C61.8866 28.2666 61.9755 28.2666 62.0644 28.1777C62.7755 27.9111 62.7755 27.9111 62.7755 27.1999V26.3999C62.3311 26.3999 61.7977 26.3999 61.3533 26.3999C60.82 26.3999 60.82 26.4888 60.82 25.9555C60.82 25.7777 60.82 25.5111 60.82 25.3333H64.1088C64.1088 25.4222 64.1088 25.5111 64.1088 25.5999C64.1088 26.4888 64.1088 27.2888 64.1088 28.1777C64.1088 28.3555 64.1089 28.4444 64.02 28.5333C62.42 29.8666 60.1977 29.9555 58.7755 29.0666C57.3533 28.1777 56.6422 26.4888 57.0866 24.7111C57.2644 23.9111 57.7089 23.1999 58.3311 22.7555C58.9533 22.2222 59.7533 21.8666 60.5533 21.7777C61.7089 21.6888 62.6866 21.9555 63.6644 22.6666C63.6644 22.6666 63.7533 22.7555 63.8422 22.8444Z" fill="white"/>
<path d="M72.9093 2.57776L66.4204 8.97776C65.7093 8.26665 64.9982 7.55554 64.2871 6.84442C64.5538 6.57776 64.9093 6.2222 65.176 5.95554C66.2427 4.88887 67.3093 3.8222 68.4649 2.75554C68.5538 2.66665 68.6427 2.57776 68.8204 2.57776C70.1538 2.57776 71.4871 2.57776 72.7315 2.57776C72.8204 2.57776 72.8204 2.57776 72.9093 2.57776Z" fill="white"/>
<path d="M87.6658 21.9557C88.1102 21.9557 88.4658 21.9557 88.8213 21.9557C88.9102 21.9557 88.9991 22.0446 88.9991 22.1335C88.9991 23.7335 89.088 25.3335 88.9991 26.9335C88.9102 28.5335 87.6658 29.6001 85.9769 29.6001C85.6213 29.6001 85.1769 29.6001 84.8213 29.5112C83.3991 29.2446 82.5102 28.2668 82.5102 26.6668C82.4213 25.1557 82.5102 23.6446 82.5102 22.1335V22.0446C82.5991 21.9557 82.5991 21.9557 82.688 21.9557C83.0435 21.9557 83.3991 21.9557 83.8435 21.9557V22.3112C83.8435 23.5557 83.8435 24.8001 83.8435 26.0446C83.8435 26.2224 83.8435 26.4001 83.8435 26.5779C83.9324 27.7335 84.6435 28.4446 85.888 28.3557C86.9547 28.3557 87.6658 27.6446 87.6658 26.4001C87.6658 25.0668 87.6658 23.7335 87.6658 22.3112V21.9557Z" fill="white"/>
<path d="M92.1986 27.111V29.511H90.8652V21.9555C92.1097 21.9555 93.443 21.8666 94.6875 22.0443C96.4652 22.311 97.3541 24.1777 96.4652 25.7777C95.9319 26.5777 95.1319 26.9332 94.243 27.0221C93.7097 27.111 93.1763 27.111 92.643 27.111C92.4652 27.111 92.3763 27.111 92.1986 27.111ZM92.1986 25.8666C92.8208 25.8666 93.3541 25.8666 93.8875 25.8666C94.1541 25.8666 94.4208 25.7777 94.6875 25.5999C95.2208 25.4221 95.3986 24.9777 95.3986 24.3554C95.3986 24.1777 95.3097 23.911 95.1319 23.7332C94.9541 23.5555 94.7763 23.3777 94.5097 23.2888C93.7986 23.0221 92.9986 23.1999 92.1986 23.1999V25.8666Z" fill="white"/>
<path d="M64.2871 12.0888C64.6427 11.8222 64.9093 11.5555 65.2649 11.2888C65.5316 11.0222 65.8871 10.6666 66.2427 10.3111C66.4204 10.1333 66.5093 10.1333 66.6871 10.3111C67.8427 11.4666 68.9982 12.5333 70.0649 13.6888L72.5538 16.0888C72.6427 16.1777 72.7315 16.2666 72.8204 16.3555C72.6427 16.3555 72.6427 16.4444 72.5538 16.4444C71.3093 16.4444 70.0649 16.4444 68.8204 16.4444C68.7316 16.4444 68.5538 16.3555 68.4649 16.2666C67.1316 14.9333 65.8871 13.6888 64.5538 12.3555C64.4649 12.3555 64.4649 12.2666 64.2871 12.0888Z" fill="white"/>
<path d="M55.0428 25.7777L51.5762 29.0666V22.3999L55.0428 25.7777Z" fill="white"/>
</g>
</g>
<defs>
<clipPath id="clip0_361_7991">
<rect width="109.333" height="32" fill="white" transform="translate(0.111328)"/>
</clipPath>
</defs>
</svg>
