<svg width="62" height="32" viewBox="0 0 62 32" fill="none" xmlns="http://www.w3.org/2000/svg">
<g clip-path="url(#clip0_361_8089)">
<path d="M19.0641 17.7764C19.0641 17.8852 19.0209 17.9896 18.944 18.0665C18.867 18.1434 18.7627 18.1866 18.6539 18.1866H1.30278C1.19399 18.1866 1.08965 18.1434 1.01272 18.0665C0.935796 17.9896 0.892578 17.8852 0.892578 17.7764V0.430592C0.892578 0.321799 0.935796 0.217462 1.01272 0.140533C1.08965 0.0636046 1.19399 0.0203857 1.30278 0.0203857H18.6539C18.7627 0.0203857 18.867 0.0636046 18.944 0.140533C19.0209 0.217462 19.0641 0.321799 19.0641 0.430592V17.7764ZM13.0059 6.47963C13.0058 6.42585 12.9951 6.37261 12.9744 6.32296C12.9537 6.27331 12.9235 6.22821 12.8854 6.19025C12.8473 6.15228 12.8021 6.12219 12.7524 6.1017C12.7027 6.0812 12.6494 6.0707 12.5956 6.0708L7.35577 6.07994C7.30199 6.08003 7.24875 6.09072 7.1991 6.11139C7.14945 6.13206 7.10435 6.1623 7.06639 6.2004C7.02842 6.2385 6.99833 6.2837 6.97784 6.33342C6.95734 6.38315 6.94684 6.43642 6.94694 6.4902L6.95609 11.7287C6.95618 11.7825 6.96686 11.8357 6.98753 11.8854C7.0082 11.935 7.03844 11.9801 7.07654 12.0181C7.11464 12.0561 7.15984 12.0861 7.20956 12.1066C7.25929 12.1271 7.31256 12.1376 7.36634 12.1375L12.6062 12.1284C12.66 12.1283 12.7132 12.1176 12.7628 12.097C12.8125 12.0763 12.8576 12.046 12.8956 12.0079C12.9335 11.9698 12.9636 11.9246 12.9841 11.8749C13.0046 11.8252 13.0151 11.7719 13.015 11.7181L13.0059 6.47963Z" fill="white"/>
<path d="M28.1426 6.04446C28.1426 6.05214 28.1456 6.05951 28.1511 6.06494C28.1565 6.07038 28.1639 6.07343 28.1715 6.07343C30.0029 6.06948 31.8469 6.06838 33.7037 6.07014C33.838 6.07058 33.9421 6.09538 34.0158 6.14454C34.137 6.22575 34.1976 6.33593 34.1976 6.47508C34.1967 8.21423 34.1969 9.96172 34.1982 11.7175C34.1982 11.9645 34.0231 12.1264 33.7834 12.1264C31.8142 12.1256 29.9438 12.1253 28.1722 12.1258C28.1642 12.1258 28.1565 12.129 28.1508 12.1346C28.1451 12.1403 28.1419 12.148 28.1419 12.1561C28.1428 14.0071 28.1428 15.8749 28.1419 17.7594C28.1419 18.0208 27.9595 18.1821 27.7179 18.1814C26.0143 18.1805 24.2789 18.1808 22.5116 18.1821C22.2838 18.1821 22.0915 17.9997 22.0909 17.7725C22.0865 11.9998 22.0869 6.21368 22.0922 0.41417C22.0922 0.123141 22.3391 0.0210831 22.586 0.0210831C24.2984 0.0197662 26.0106 0.0195461 27.7225 0.020424C28.0039 0.020424 28.1443 0.19074 28.1439 0.531371C28.1421 2.36973 28.1417 4.20742 28.1426 6.04446Z" fill="white"/>
<path d="M39.8551 0.0250013L34.6048 0.0158377C34.3829 0.0154506 34.2028 0.194959 34.2024 0.416782L34.1933 5.66846C34.1929 5.89028 34.3724 6.07042 34.5942 6.07081L39.8446 6.07997C40.0664 6.08036 40.2465 5.90085 40.2469 5.67903L40.2561 0.427348C40.2565 0.205525 40.077 0.0253885 39.8551 0.0250013Z" fill="white"/>
<path d="M48.9372 0.0203857H43.6986C43.4714 0.0203857 43.2871 0.204631 43.2871 0.431908V5.66384C43.2871 5.89112 43.4714 6.07537 43.6986 6.07537H48.9372C49.1644 6.07537 49.3487 5.89112 49.3487 5.66384V0.431908C49.3487 0.204631 49.1644 0.0203857 48.9372 0.0203857Z" fill="white"/>
<path d="M61.0615 0.0203857H55.8033C55.5851 0.0203857 55.4082 0.197261 55.4082 0.415447V5.6803C55.4082 5.89849 55.5851 6.07537 55.8033 6.07537H61.0615C61.2797 6.07537 61.4566 5.89849 61.4566 5.6803V0.415447C61.4566 0.197261 61.2797 0.0203857 61.0615 0.0203857Z" fill="white"/>
<path d="M54.9931 6.07144L49.7533 6.08058C49.5271 6.08098 49.3441 6.26466 49.3445 6.49085L49.3536 11.728C49.354 11.9542 49.5377 12.1373 49.7639 12.1369L55.0037 12.1277C55.2299 12.1273 55.4129 11.9437 55.4125 11.7175L55.4034 6.48027C55.403 6.25408 55.2193 6.07104 54.9931 6.07144Z" fill="white"/>
<path d="M39.8479 12.1331H34.6028C34.3799 12.1331 34.1992 12.3138 34.1992 12.5367V17.7831C34.1992 18.006 34.3799 18.1867 34.6028 18.1867H39.8479C40.0709 18.1867 40.2516 18.006 40.2516 17.7831V12.5367C40.2516 12.3138 40.0709 12.1331 39.8479 12.1331Z" fill="white"/>
<path d="M48.9391 12.1331H43.6967C43.4705 12.1331 43.2871 12.3164 43.2871 12.5426V17.7772C43.2871 18.0034 43.4705 18.1867 43.6967 18.1867H48.9391C49.1653 18.1867 49.3487 18.0034 49.3487 17.7772V12.5426C49.3487 12.3164 49.1653 12.1331 48.9391 12.1331Z" fill="white"/>
<path d="M61.0654 12.1375L55.8111 12.1284C55.5918 12.128 55.4138 12.3054 55.4134 12.5247L55.4042 17.7843C55.4038 18.0036 55.5813 18.1816 55.8005 18.182L61.0548 18.1912C61.2741 18.1916 61.4522 18.0141 61.4526 17.7949L61.4618 12.5353C61.4621 12.316 61.2847 12.1379 61.0654 12.1375Z" fill="white"/>
<path d="M59.1367 29.4722C59.0617 29.2259 58.5738 29.1469 58.34 29.1087C57.8576 29.0297 57.42 28.943 57.0271 28.8487C56.8046 28.7951 56.5789 28.708 56.3502 28.5873C55.7366 28.2624 55.4001 27.7506 55.3409 27.0518C55.1861 25.2246 56.7493 24.2758 58.3644 24.2541C59.4416 24.2403 60.5208 24.557 61.3557 25.2582C61.3864 25.2837 61.3901 25.3126 61.3669 25.3451L60.2739 26.8734C60.2603 26.8922 60.2447 26.894 60.2271 26.8786C59.6301 26.3492 58.9317 26.1135 58.132 26.1715C57.9693 26.1833 57.7771 26.2485 57.6869 26.3901C57.6149 26.5029 57.6103 26.6082 57.673 26.7061C57.8034 26.9102 58.2452 26.98 58.4711 27.0189C59.9275 27.2717 61.6237 27.6148 61.4735 29.5571C61.4011 30.4875 60.8217 31.2065 59.9762 31.5812C58.8437 32.0829 57.492 31.9993 56.3035 31.6259C55.8103 31.4712 55.2875 31.2309 54.9247 30.8648C54.9188 30.8588 54.9151 30.851 54.9142 30.8428C54.9134 30.8345 54.9155 30.8262 54.9201 30.8194L56.0322 29.118C56.0445 29.0991 56.059 29.0973 56.0757 29.1127C56.7613 29.7483 57.5683 30.0521 58.4967 30.024C58.7878 30.0154 59.2507 29.8488 59.1367 29.4722Z" fill="white"/>
<path d="M6.15582 24.3628L8.49329 24.3622C8.49674 24.3622 8.50014 24.363 8.50319 24.3646C8.50625 24.3663 8.50888 24.3686 8.51087 24.3714C8.51286 24.3743 8.51414 24.3775 8.51461 24.381C8.51508 24.3844 8.51473 24.3879 8.51358 24.3912L5.88949 31.788C5.888 31.7922 5.88526 31.7959 5.88162 31.7985C5.87799 31.8011 5.87365 31.8025 5.8692 31.8025L3.52322 31.8019C3.51877 31.8018 3.51443 31.8004 3.5108 31.7978C3.50717 31.7952 3.50442 31.7916 3.50294 31.7873L0.878189 24.3919C0.877039 24.3886 0.876684 24.3851 0.877155 24.3817C0.877626 24.3782 0.878908 24.3749 0.880895 24.3721C0.882881 24.3692 0.885513 24.3669 0.888571 24.3653C0.89163 24.3637 0.895026 24.3629 0.898475 24.3628H3.32887C3.3334 24.3629 3.3378 24.3644 3.34144 24.3671C3.34508 24.3699 3.34778 24.3737 3.34915 24.378L4.71159 28.6325C4.71289 28.6369 4.71557 28.6408 4.71923 28.6437C4.7229 28.6465 4.72736 28.648 4.73196 28.6481C4.73656 28.6482 4.74107 28.6468 4.74482 28.6441C4.74858 28.6414 4.75138 28.6375 4.75282 28.6331L6.13553 24.378C6.13691 24.3737 6.13961 24.3699 6.14325 24.3671C6.14689 24.3644 6.15129 24.3629 6.15582 24.3628Z" fill="white"/>
<path d="M11.9432 29.0372L11.9425 29.8135C11.9425 29.8198 11.945 29.8259 11.9495 29.8303C11.954 29.8348 11.96 29.8373 11.9663 29.8373L15.2057 29.8366C15.2121 29.8366 15.2181 29.8391 15.2226 29.8436C15.227 29.8481 15.2295 29.8541 15.2295 29.8604L15.2289 31.7787C15.2289 31.7851 15.2264 31.7911 15.2219 31.7955C15.2174 31.8 15.2114 31.8025 15.2051 31.8025H9.65658C9.65028 31.8025 9.64423 31.8 9.63977 31.7955C9.63532 31.7911 9.63281 31.7851 9.63281 31.7787V24.3859C9.63281 24.3828 9.63343 24.3797 9.63462 24.3769C9.63582 24.374 9.63757 24.3714 9.63977 24.3691C9.64198 24.3669 9.6446 24.3652 9.64749 24.364C9.65037 24.3628 9.65346 24.3622 9.65658 24.3622H15.2057C15.2089 24.3622 15.212 24.3628 15.2148 24.364C15.2177 24.3652 15.2204 24.3669 15.2226 24.3691C15.2248 24.3714 15.2265 24.374 15.2277 24.3769C15.2289 24.3797 15.2295 24.3828 15.2295 24.3859L15.2289 26.3115C15.2289 26.3179 15.2264 26.3239 15.2219 26.3284C15.2174 26.3328 15.2114 26.3353 15.2051 26.3353L11.967 26.334C11.9607 26.334 11.9546 26.3365 11.9502 26.341C11.9457 26.3454 11.9432 26.3515 11.9432 26.3578L11.9406 27.074C11.9406 27.0803 11.9431 27.0863 11.9475 27.0908C11.952 27.0953 11.958 27.0978 11.9643 27.0978H14.6168C14.6231 27.0978 14.6291 27.1003 14.6336 27.1047C14.638 27.1092 14.6405 27.1152 14.6405 27.1215V28.9904C14.6405 28.9967 14.638 29.0027 14.6336 29.0072C14.6291 29.0116 14.6231 29.0141 14.6168 29.0141L11.967 29.0135C11.9607 29.0135 11.9546 29.016 11.9502 29.0204C11.9457 29.0249 11.9432 29.0309 11.9432 29.0372Z" fill="white"/>
<path d="M18.9079 28.0579L18.9092 31.7702C18.9092 31.7787 18.9057 31.787 18.8996 31.793C18.8935 31.7991 18.8852 31.8025 18.8765 31.8025L16.7097 31.8012C16.7014 31.8012 16.6934 31.7979 16.6876 31.7919C16.6817 31.786 16.6784 31.7779 16.6784 31.7695L16.6777 24.3925C16.6777 24.3723 16.6877 24.3622 16.7078 24.3622L18.9131 24.3628C18.9305 24.3628 18.944 24.3701 18.9536 24.3846L21.2634 27.8368C21.2851 27.8694 21.296 27.8661 21.296 27.8269L21.2954 24.4024C21.2954 24.3756 21.3084 24.3622 21.3345 24.3622H23.4856C23.4962 24.3622 23.5063 24.3664 23.5138 24.374C23.5213 24.3815 23.5255 24.3918 23.5255 24.4024V31.7629C23.5255 31.7732 23.5214 31.7831 23.5142 31.7904C23.507 31.7977 23.4972 31.8019 23.4869 31.8019L21.5526 31.8012C21.5396 31.8012 21.5267 31.798 21.5152 31.7919C21.5037 31.7858 21.4939 31.777 21.4867 31.7662L18.9287 28.0513C18.9148 28.0307 18.9079 28.0328 18.9079 28.0579Z" fill="white"/>
<path d="M29.2478 31.8019L26.9583 31.8025C26.9508 31.8025 26.9436 31.7995 26.9383 31.7942C26.9329 31.7889 26.93 31.7817 26.93 31.7741L26.9293 26.3615C26.9293 26.3578 26.9286 26.3541 26.9272 26.3507C26.9257 26.3472 26.9236 26.3441 26.921 26.3415C26.9184 26.3388 26.9153 26.3367 26.9118 26.3353C26.9084 26.3339 26.9047 26.3332 26.901 26.3332L24.872 26.3358C24.8645 26.3358 24.8573 26.3328 24.852 26.3275C24.8467 26.3222 24.8437 26.3149 24.8438 26.3074V24.3906C24.8438 24.383 24.8467 24.3758 24.852 24.3705C24.8573 24.3652 24.8645 24.3622 24.872 24.3622H31.334C31.3415 24.3622 31.3487 24.3652 31.354 24.3705C31.3593 24.3758 31.3623 24.383 31.3623 24.3906L31.3616 26.3068C31.3616 26.3143 31.3586 26.3215 31.3533 26.3268C31.348 26.3321 31.3408 26.3351 31.3333 26.3351L29.3037 26.3332C29.2962 26.3332 29.289 26.3361 29.2837 26.3415C29.2784 26.3468 29.2754 26.354 29.2754 26.3615L29.2761 31.7735C29.2761 31.781 29.2731 31.7882 29.2678 31.7935C29.2625 31.7989 29.2553 31.8019 29.2478 31.8019Z" fill="white"/>
<path d="M35.6037 29.7607C36.4251 29.9325 36.8545 29.4028 36.8552 28.6448C36.857 27.2452 36.8572 25.825 36.8559 24.3842C36.8559 24.3784 36.8582 24.3728 36.8624 24.3686C36.8666 24.3645 36.8723 24.3622 36.8782 24.3622L39.1491 24.3628C39.1811 24.3628 39.1971 24.3786 39.1971 24.4102C39.1962 25.8686 39.1955 27.2994 39.1951 28.7025C39.1945 29.7471 38.8058 30.7288 37.9068 31.2851C36.9894 31.8531 35.6813 31.9199 34.6823 31.6482C33.919 31.4411 33.3521 31.0305 32.9817 30.4162C32.6331 29.8385 32.5437 29.2005 32.547 28.5028C32.5535 27.1343 32.5544 25.7655 32.5496 24.3965C32.5496 24.3736 32.561 24.3622 32.5838 24.3622L34.8671 24.3628C34.8706 24.3628 34.874 24.3635 34.8771 24.3648C34.8803 24.3661 34.8831 24.368 34.8855 24.3705C34.8879 24.3729 34.8898 24.3757 34.891 24.3789C34.8923 24.382 34.8929 24.3854 34.8928 24.3888C34.8897 25.7608 34.8893 27.1743 34.8915 28.6293C34.8921 29.1311 35.0506 29.6447 35.6037 29.7607Z" fill="white"/>
<path d="M43.0021 29.5632L43.0041 31.7662C43.0041 31.7755 43.0004 31.7844 42.9939 31.7909C42.9873 31.7975 42.9784 31.8012 42.9691 31.8012L40.6861 31.8019C40.6758 31.8019 40.6659 31.7977 40.6585 31.7904C40.6512 31.7831 40.6471 31.7732 40.6471 31.7629L40.6465 24.3957C40.6465 24.3871 40.6499 24.3789 40.656 24.3728C40.662 24.3668 40.6702 24.3634 40.6788 24.3634C41.91 24.3612 43.0822 24.362 44.1955 24.366C44.606 24.3673 45.0161 24.4349 45.4258 24.5686C46.3564 24.8722 46.9696 25.5665 47.0943 26.5571C47.2336 27.6678 46.7841 28.6248 45.7888 29.1389C45.7611 29.153 45.7553 29.1732 45.7716 29.1996L47.3557 31.7708C47.3689 31.7919 47.363 31.8025 47.3379 31.8025L44.7288 31.8005C44.7137 31.8005 44.6989 31.7965 44.6858 31.789C44.6727 31.7815 44.6618 31.7707 44.6542 31.7576L43.3949 29.558C43.3808 29.5333 43.3594 29.521 43.3308 29.521L43.0437 29.5217C43.016 29.5217 43.0021 29.5355 43.0021 29.5632ZM43.0054 26.3287L43.0002 27.6724C43.0002 27.6777 43.0022 27.6827 43.006 27.6864C43.0097 27.6901 43.0147 27.6922 43.02 27.6922L44.0516 27.6962C44.1488 27.6966 44.2451 27.6804 44.335 27.6486C44.4249 27.6167 44.5067 27.5699 44.5757 27.5107C44.6446 27.4515 44.6994 27.3811 44.7369 27.3035C44.7744 27.226 44.7938 27.1428 44.7941 27.0587V26.9557C44.7947 26.786 44.7174 26.6229 44.5792 26.5024C44.4409 26.3818 44.253 26.3137 44.0569 26.3129L43.0252 26.3089C43.0226 26.3089 43.0201 26.3095 43.0177 26.3105C43.0153 26.3114 43.0131 26.3129 43.0112 26.3147C43.0094 26.3166 43.0079 26.3188 43.0069 26.3212C43.0059 26.3236 43.0054 26.3261 43.0054 26.3287Z" fill="white"/>
<path d="M50.7925 29.0352V29.8149C50.7925 29.8208 50.7949 29.8265 50.7991 29.8307C50.8033 29.8349 50.809 29.8373 50.815 29.8373L54.0547 29.8366C54.0607 29.8366 54.0664 29.839 54.0706 29.8432C54.0748 29.8474 54.0772 29.8531 54.0772 29.8591V31.7801C54.0772 31.786 54.0748 31.7917 54.0706 31.7959C54.0664 31.8001 54.0607 31.8025 54.0547 31.8025H48.5029C48.497 31.8025 48.4912 31.8001 48.487 31.7959C48.4828 31.7917 48.4805 31.786 48.4805 31.7801V24.3846C48.4805 24.3787 48.4828 24.373 48.487 24.3688C48.4912 24.3645 48.497 24.3622 48.5029 24.3622H54.0547C54.0607 24.3622 54.0664 24.3645 54.0706 24.3688C54.0748 24.373 54.0772 24.3787 54.0772 24.3846V26.3129C54.0772 26.3188 54.0748 26.3245 54.0706 26.3287C54.0664 26.3329 54.0607 26.3353 54.0547 26.3353L50.815 26.334C50.809 26.334 50.8033 26.3364 50.7991 26.3406C50.7949 26.3448 50.7925 26.3505 50.7925 26.3564V27.0753C50.7925 27.0813 50.7949 27.087 50.7991 27.0912C50.8033 27.0954 50.809 27.0978 50.815 27.0978L53.4629 27.0971C53.4658 27.0971 53.4687 27.0977 53.4715 27.0988C53.4742 27.0999 53.4766 27.1016 53.4787 27.1037C53.4808 27.1058 53.4825 27.1082 53.4836 27.111C53.4847 27.1137 53.4853 27.1166 53.4853 27.1195L53.486 28.9923C53.486 28.9983 53.4836 29.004 53.4794 29.0082C53.4752 29.0124 53.4695 29.0148 53.4635 29.0148L50.815 29.0128C50.809 29.0128 50.8033 29.0152 50.7991 29.0194C50.7949 29.0236 50.7925 29.0293 50.7925 29.0352Z" fill="white"/>
</g>
<defs>
<clipPath id="clip0_361_8089">
<rect width="60.7078" height="32" fill="white" transform="translate(0.810547)"/>
</clipPath>
</defs>
</svg>
