<svg width="110" height="32" viewBox="0 0 110 32" xmlns="http://www.w3.org/2000/svg">
<g clip-path="url(#clip0_361_7928)">
<mask id="mask0_361_7928" style="mask-type:luminance" maskUnits="userSpaceOnUse" x="0" y="8" width="110" height="16">
<path d="M109.065 8.44434H0.443359V23.4666H109.065V8.44434Z" fill="white"/>
</mask>
<g mask="url(#mask0_361_7928)">
<path d="M38.8435 23.3777H38.3991C36.9769 23.3777 35.6435 23.3777 34.2213 23.3777C33.688 23.3777 33.2435 23.4665 32.7102 23.4665C31.1991 23.5554 30.0435 22.9332 28.9769 21.7777C28.088 20.7999 27.7324 19.5554 27.7324 18.311C27.7324 16.8888 27.7324 15.4666 27.7324 14.0443C27.7324 13.0666 27.9102 12.1777 28.2658 11.3777C28.7991 10.2221 29.688 9.33322 30.8435 8.88877C32.2658 8.35544 33.7769 8.26655 35.1991 8.97766C36.6213 9.68877 37.5991 10.9332 37.8657 12.6221C38.0435 13.3332 38.0435 14.0443 38.0435 14.7554C38.0435 16.0888 38.0435 17.511 37.9546 18.8443C37.9546 19.4666 37.7769 20.0888 37.5102 20.711C37.5102 20.711 37.5102 20.7999 37.5102 20.8888C37.5102 20.9777 37.5102 20.9777 37.5991 21.0665C37.9546 21.7777 38.3991 22.4888 38.7546 23.1999C38.7546 23.2888 38.8435 23.2888 38.8435 23.3777ZM30.3991 15.9999C30.3991 16.9777 30.488 17.9554 30.5769 18.8443C30.5769 19.3777 30.7546 19.8221 31.1102 20.1777C31.9102 20.8888 32.7991 21.0665 33.7769 20.711C34.6657 20.3554 35.0213 19.6443 35.1102 18.7554C35.288 16.8888 35.288 15.111 35.1102 13.2443C35.0213 12.2666 34.5769 11.6443 33.688 11.2888C32.5324 10.8443 30.8435 11.3777 30.5769 12.9777C30.488 14.0443 30.3991 15.0221 30.3991 15.9999Z" fill="white"/>
<path d="M56.5312 15.7332C56.5312 14.8443 56.5313 13.7777 56.709 12.711C56.9757 10.8443 58.1313 9.51099 59.8201 8.88877C61.8646 7.99988 64.1757 8.6221 65.6868 10.311C66.3979 11.111 66.7535 12.0888 66.8424 13.1554C66.9312 15.0221 67.0201 16.9777 66.8424 18.8443C66.5757 21.2443 64.8868 23.111 62.7535 23.4665C60.9757 23.7332 59.2868 23.2888 57.9535 21.8665C57.1535 21.0665 56.709 19.9999 56.6201 18.8443C56.6201 17.8665 56.5312 16.8888 56.5312 15.7332ZM59.2868 15.911C59.3757 16.8888 59.3757 17.7777 59.4646 18.6665C59.4646 19.3777 59.7313 19.911 60.2646 20.3554C61.509 21.4221 63.7312 20.7999 63.9979 19.0221C64.0868 18.3999 64.0868 17.7777 64.0868 17.1554C64.0868 15.8221 64.0868 14.5777 63.9979 13.3332C63.9979 12.6221 63.7312 12.0888 63.1979 11.6443C61.8646 10.5777 59.6424 11.1999 59.4646 13.0665C59.3757 14.0443 59.3757 15.0221 59.2868 15.911Z" fill="white"/>
<path d="M14.7559 8.71106H24.0003V11.1111H17.5114V14.5777H23.0225V17.2444H17.5114V20.8888H24.0003V23.3777H14.7559V8.71106Z" fill="white"/>
<path d="M42.2207 8.71106H44.9763V8.97773C44.9763 12.0888 44.9763 15.1999 44.9763 18.2222C44.9763 19.0222 45.154 19.6444 45.6874 20.1777C46.3985 20.9777 47.3763 21.0666 48.354 20.7111C49.2429 20.4444 49.5985 19.7333 49.7763 18.7555C49.7763 18.5777 49.7763 18.3111 49.7763 18.1333C49.7763 15.0222 49.7763 11.9999 49.7763 8.97773V8.71106H52.4429C52.5318 8.79995 52.5318 8.79995 52.5318 8.88884C52.5318 12.0888 52.5318 15.1999 52.5318 18.3111C52.5318 19.9999 51.9096 21.4222 50.5763 22.4888C49.7763 23.1111 48.8874 23.3777 47.8207 23.4666C46.5763 23.5555 45.3318 23.2888 44.2651 22.4888C43.7318 22.1333 43.2874 21.6888 42.9318 21.1555C42.6651 20.6222 42.3985 19.9999 42.3096 19.3777C42.2207 19.0222 42.2207 18.5777 42.2207 18.2222C42.2207 15.1111 42.2207 12.0888 42.2207 8.97773V8.71106Z" fill="white"/>
<path d="M89.422 23.3776C89.3331 23.3776 89.2442 23.3776 89.1553 23.3776C88.3553 23.3776 87.6442 23.3776 86.8442 23.3776C86.6664 23.3776 86.5775 23.2887 86.5775 23.111C86.3108 22.3998 86.1331 21.6887 85.8664 20.9776C85.8664 20.7998 85.7775 20.711 85.5108 20.711C84.0886 20.711 82.5775 20.711 81.0664 20.711C80.9775 20.711 80.8886 20.711 80.8886 20.7998C80.7997 20.7998 80.7109 20.8887 80.7109 20.9776C80.5331 21.6887 80.2664 22.3998 79.9997 23.111C79.9997 23.1998 79.9109 23.3776 79.822 23.3776C78.9331 23.3776 78.0442 23.3776 77.2442 23.3776C77.1553 23.3776 77.1553 23.2887 77.0664 23.2887C77.1553 23.111 77.2442 22.9332 77.3331 22.6665C78.8442 18.311 80.3553 13.8665 81.9553 9.51096C82.0442 9.33318 82.0442 9.06651 82.1331 8.88874C82.1331 8.79985 82.222 8.71096 82.222 8.71096C82.3108 8.62207 82.3997 8.62207 82.3997 8.62207C83.022 8.71096 83.5553 8.71096 84.0886 8.62207C84.1775 8.62207 84.2664 8.71096 84.2664 8.71096C84.3553 8.71096 84.3553 8.79985 84.4442 8.88874C85.2442 11.3776 86.1331 13.8665 87.022 16.3554C87.7331 18.5776 88.5331 20.7998 89.3331 23.0221C89.3331 23.111 89.422 23.1998 89.422 23.3776ZM81.5108 18.2221H85.0664L83.3775 13.0665H83.2886C82.6664 14.7554 82.1331 16.5332 81.5108 18.2221Z" fill="white"/>
<path d="M10.3989 10.2221L8.62113 11.9999C8.26557 11.7332 7.99891 11.5554 7.64335 11.3777C6.66558 10.9332 5.59891 10.8443 4.62113 11.1999C4.35447 11.2888 4.17669 11.4665 3.99891 11.6443C3.82113 11.8221 3.73225 12.0888 3.64336 12.3554C3.55447 12.6221 3.55447 12.7999 3.64336 13.0665C3.64336 13.3332 3.73225 13.5999 3.91002 13.7777C4.26558 14.2221 4.71002 14.4888 5.33224 14.5777C6.04335 14.6665 6.75446 14.7554 7.55446 14.8443C8.35446 14.9332 9.06557 15.2888 9.59891 15.911C10.2211 16.4443 10.5767 17.2443 10.7545 18.0443C10.9322 19.2888 10.8433 20.5332 10.0434 21.5999C9.51002 22.311 8.79891 22.7554 7.99891 23.111C6.31002 23.7332 4.53224 23.6443 2.75447 23.111C1.86558 22.8443 1.15447 22.311 0.443359 21.5999L2.22114 19.8221C2.4878 19.9999 2.75447 20.1777 3.02113 20.3554C4.26558 21.0665 5.59891 21.1554 6.93224 20.7999C7.64335 20.5332 8.0878 19.911 7.99891 19.111C7.99891 18.311 7.64335 17.6888 6.93224 17.511C6.31002 17.4221 5.59891 17.2443 4.97669 17.2443C3.91002 17.0665 2.93225 16.7999 2.13225 15.9999C1.59891 15.5554 1.24336 14.9332 1.06558 14.311C0.798915 12.9777 0.887803 11.7332 1.59891 10.5777C2.22114 9.59988 3.19891 8.97766 4.26558 8.79988C5.77669 8.44433 7.2878 8.53321 8.79891 9.06655C9.33224 9.33321 9.95446 9.77766 10.3989 10.2221Z" fill="white"/>
<path d="M73.6003 23.3777H70.9336V8.71106H73.6003V23.3777Z" fill="white"/>
<path d="M95.0215 22.0444V8.71106H96.7993V8.97773C96.7993 12.6222 96.7993 16.2666 96.7993 19.9111C96.7993 19.9999 96.7993 20.0888 96.7104 20.1777C96.7104 20.2666 96.6215 20.3555 96.6215 20.3555C96.177 20.8888 95.7326 21.3333 95.1993 21.7777C95.1993 21.8666 95.1104 21.9555 95.0215 22.0444Z" fill="white"/>
<path d="M96.2656 23.2888C96.799 22.7554 97.3323 22.1332 97.9545 21.5999C97.9545 21.5999 98.0434 21.511 98.1323 21.511C101.777 21.511 105.332 21.511 108.888 21.511C108.977 21.511 108.977 21.511 109.066 21.511V23.3777H96.3545L96.2656 23.2888Z" fill="white"/>
<path d="M109.065 17.8666V19.6444H99.8203L99.9092 19.5555C100.443 19.0221 100.887 18.4888 101.42 17.9555C101.509 17.8666 101.598 17.8666 101.687 17.8666C104.087 17.8666 106.576 17.8666 108.976 17.8666C108.976 17.8666 108.976 17.8666 109.065 17.8666Z" fill="white"/>
<path d="M98.5762 18.3112V8.71118H100.265C100.265 8.71118 100.265 8.80007 100.265 8.88896C100.265 11.3778 100.265 13.8667 100.265 16.3556C100.265 16.4445 100.176 16.6223 100.087 16.7112C99.6428 17.1556 99.1984 17.689 98.7539 18.1334C98.6651 18.2223 98.6651 18.2223 98.5762 18.3112Z" fill="white"/>
<path d="M105.598 8.62207H109.064V12.2665H105.598V8.62207Z" fill="white"/>
<path d="M102.043 8.62207H103.821V8.97763C103.821 10.1332 103.821 11.3776 103.821 12.6221C103.821 12.7998 103.732 12.8887 103.643 13.0665C103.11 13.5998 102.576 14.1332 102.043 14.6665V8.62207Z" fill="white"/>
<path d="M109.067 16.0001H103.378L103.289 15.9112C103.378 15.8223 103.556 15.7334 103.645 15.6445C103.822 15.4668 103.911 15.289 104.089 15.1112C104.445 14.8445 104.711 14.4001 105.067 14.2223C105.422 14.0445 105.956 14.1334 106.4 14.1334C107.289 14.1334 108.178 14.1334 109.067 14.1334V16.0001Z" fill="white"/>
</g>
</g>
<defs>
<clipPath id="clip0_361_7928">
<rect width="109.333" height="32"/>
</clipPath>
</defs>
</svg>
