<svg width="215" height="32" viewBox="0 0 215 32" fill="none" xmlns="http://www.w3.org/2000/svg">
<g clip-path="url(#clip0_361_8107)">
<path d="M114.595 20.7278C114.316 21.6594 113.943 22.5444 113.525 23.3363C113.386 23.6157 113.247 23.8487 113.107 24.1281C112.363 25.1994 111.061 25.9447 109.667 25.9447C108.412 25.9447 107.25 25.3857 106.506 24.5007C106.459 24.4541 106.413 24.4075 106.367 24.361C105.576 23.476 104.461 22.917 103.205 22.917C102.88 22.917 102.601 22.9636 102.323 23.0102V31.7206C101.393 31.9068 100.37 32 99.3937 32C90.5615 32 83.4492 24.8268 83.4492 16.0232C83.4492 7.21979 90.515 0 99.3476 0C101.021 0 102.647 0.279476 104.181 0.74527L99.4398 5.49636L102.323 8.38428L112.456 18.5385L112.874 18.9578L114.595 20.7278Z" fill="white"/>
<path d="M0.517578 20.4949L2.00511 19.7497C2.79537 21.5662 4.6083 22.5444 6.93257 22.5444C9.44278 22.5444 11.3486 21.2402 11.3486 19.0044C11.3486 16.5822 9.16387 16.1165 6.79311 15.6041C4.05047 14.9986 0.935947 14.2067 0.935947 10.5736C0.935947 7.7322 3.58562 5.54297 6.74662 5.54297C9.34981 5.54297 11.7206 6.80062 12.6968 9.17616L11.2557 9.92144C10.4189 8.15141 8.83847 7.17325 6.70014 7.17325C4.56181 7.17325 2.7024 8.57063 2.7024 10.4804C2.7024 12.9025 4.93369 13.3683 7.35093 13.8807C10.0936 14.4862 13.1616 15.2781 13.1616 18.9579C13.0686 22.1718 10.3724 24.2213 6.93257 24.2213C4.05047 24.2213 1.54026 22.917 0.517578 20.4949Z" fill="white"/>
<path d="M16.1836 24.0349V5.82239H17.9035V14.1601H28.6882V5.82239H30.4082V24.0349H28.6882V15.7438H17.9035V23.9883H16.1836V24.0349Z" fill="white"/>
<path d="M36.591 5.82239V24.0349H34.8711V5.82239H36.591Z" fill="white"/>
<path d="M39.7051 24.0349L42.3083 7.49926C42.5407 6.19503 43.4703 5.49634 44.6325 5.49634C45.6552 5.49634 46.5849 6.00871 46.9103 7.17319L50.8151 21.0072C50.908 21.4264 51.001 21.5662 51.2335 21.5662C51.4658 21.5662 51.5588 21.3798 51.6518 21.0072L55.5566 7.21977C55.882 6.05529 56.8117 5.49634 57.8344 5.49634C58.9501 5.49634 59.8798 6.19503 60.1121 7.54583L62.483 23.9417H60.763L58.5316 8.01162C58.4387 7.4061 58.2992 7.03346 57.7879 7.03346C57.416 7.03346 57.1371 7.35952 56.9976 7.91846L52.9534 21.7991C52.721 22.6375 52.0237 23.1033 51.2335 23.1033C50.4896 23.1033 49.7459 22.6841 49.5135 21.8457L45.4692 7.87189C45.2833 7.31294 45.0974 7.03346 44.7255 7.03346C44.3535 7.03346 44.0282 7.35952 43.9352 8.01162L41.4715 23.9883H39.7051V24.0349Z" fill="white"/>
<path d="M68.9434 7.7322C69.4083 6.24166 70.4774 5.54297 71.8721 5.54297C73.2201 5.54297 74.3358 6.24166 74.8006 7.7322L79.914 24.0349H78.1475L76.6135 18.9579L67.2235 19.0044L65.5965 24.0349H63.8301L68.9434 7.7322ZM67.6418 17.3276H76.0557L73.2666 8.24458C73.0341 7.49931 72.5693 7.12667 71.8721 7.12667C71.1282 7.12667 70.7099 7.49931 70.4774 8.24458L67.6418 17.3276Z" fill="white"/>
<path d="M118.127 14.9054C118.127 9.6885 122.217 5.54297 127.191 5.54297C130.26 5.54297 132.955 7.08009 134.396 9.59542L133.002 10.4338C131.794 8.43089 129.608 7.17325 127.191 7.17325C123.24 7.17325 119.94 10.5736 119.94 14.9054C119.94 19.2839 123.193 22.6842 127.191 22.6842C129.608 22.6842 131.794 21.4731 133.002 19.4702L134.396 20.3086C132.955 22.8239 130.26 24.3611 127.191 24.3611C122.217 24.3145 118.127 20.1689 118.127 14.9054Z" fill="white"/>
<path d="M139.602 7.7322C140.067 6.24166 141.136 5.54297 142.531 5.54297C143.925 5.54297 144.995 6.24166 145.459 7.7322L150.572 24.0349H148.806L147.272 18.9579L137.882 19.0044L136.255 24.0349H134.488L139.602 7.7322ZM138.3 17.3276H146.714L143.925 8.24458C143.693 7.49931 143.228 7.12667 142.531 7.12667C141.787 7.12667 141.368 7.49931 141.136 8.24458L138.3 17.3276Z" fill="white"/>
<path d="M153.176 24.0349V5.82239H158.429C163.078 5.82239 166.238 7.87188 166.238 12.1106C166.238 16.489 162.938 18.4453 158.476 18.4453H154.896V24.0815H153.176V24.0349ZM154.896 7.45267V16.7685H158.429C161.776 16.7685 164.426 15.4178 164.426 12.064C164.426 8.85005 161.962 7.40609 158.429 7.40609H154.896V7.45267Z" fill="white"/>
<path d="M170.377 5.82239V24.0349H168.656V5.82239H170.377Z" fill="white"/>
<path d="M185.437 7.45267H179.627V24.0349H177.906V7.45267H172.143V5.82239H185.437V7.45267Z" fill="white"/>
<path d="M189.389 7.7322C189.854 6.24166 190.923 5.54297 192.317 5.54297C193.712 5.54297 194.781 6.24166 195.246 7.7322L200.359 24.0349H198.546L197.012 18.9578L187.622 19.0044L186.042 24.0815H184.275L189.389 7.7322ZM188.087 17.3276H196.5L193.712 8.24458C193.479 7.49931 193.014 7.12667 192.317 7.12667C191.573 7.12667 191.155 7.49931 190.923 8.24458L188.087 17.3276Z" fill="white"/>
<path d="M204.682 22.4046H214.166V24.0349H204.682C203.381 24.0349 202.963 23.3828 202.963 22.3115V5.82239H204.682V22.4046Z" fill="white"/>
</g>
<defs>
<clipPath id="clip0_361_8107">
<rect width="213.647" height="32" fill="white" transform="translate(0.517578)"/>
</clipPath>
</defs>
</svg>
