<svg width="90" height="32" viewBox="0 0 90 32" fill="none" xmlns="http://www.w3.org/2000/svg">
<g clip-path="url(#clip0_361_7968)">
<mask id="mask0_361_7968" style="mask-type:luminance" maskUnits="userSpaceOnUse" x="0" y="4" width="90" height="24">
<path d="M89.1115 4.44446H0.222656V27.3778H89.1115V4.44446Z" fill="white"/>
</mask>
<g mask="url(#mask0_361_7968)">
<path d="M2.44508 18.4889C2.62286 18.7556 2.88953 18.8445 3.15619 18.8445H10.0006C10.2673 18.8445 10.7117 18.8445 10.9784 18.0445C11.2451 17.1556 11.2451 17.0667 11.4229 16.4445C11.5117 16.1778 11.6895 15.7333 12.4006 15.7333H19.1562C19.6006 15.7333 20.0451 15.4667 20.2228 14.9333C20.5784 13.8667 20.7562 12.6222 20.7562 11.3778C20.7562 11.1111 20.5784 10.8445 20.3117 10.8445C18.0895 10.8445 15.9562 10.8445 13.8228 10.8445C13.5562 10.8445 13.4673 10.6667 13.5562 10.4889C13.8228 9.77779 14.0006 9.06668 14.2673 8.35557C14.3562 8.0889 14.6228 7.55557 15.2451 7.55557H19.4228C19.7784 7.55557 20.0451 7.20001 19.9562 6.75557C19.6895 6.13335 19.334 5.51112 18.9784 4.8889C18.8895 4.62224 18.534 4.44446 18.2673 4.44446H16.134C15.8673 4.44446 15.4228 4.53335 15.2451 5.33335C14.9784 6.13335 14.8895 6.31112 14.7117 6.84446C14.6228 7.11112 14.534 7.55557 13.734 7.55557H1.64508C1.11175 7.55557 0.667306 7.91112 0.489528 8.44446C0.311751 9.51112 0.133973 10.6667 0.222862 11.7333C0.222862 12.1778 0.578417 12.4445 0.933972 12.4445C4.6673 12.4445 8.57841 12.4445 12.4006 12.4445C12.5784 12.4445 12.6673 12.6222 12.5784 12.8889C12.4006 13.6 12.134 14.3111 11.9562 15.0222C11.8673 15.2889 11.6006 15.7333 10.9784 15.7333H1.73397C1.37842 15.7333 1.11175 16.1778 1.28953 16.5333C1.64508 17.2445 2.00064 17.8667 2.44508 18.4889Z" fill="white"/>
<path d="M41.8229 5.33337C42.0896 5.33337 42.1785 5.51115 42.1785 5.77782V7.64449C42.1785 7.91115 42.0896 8.00004 41.8229 8.00004H31.423C30.8896 8.00004 30.623 8.08893 30.4452 8.26671C30.2674 8.44448 30.0896 8.71115 30.0896 9.06671V9.33337C30.0896 9.68893 30.2674 9.9556 30.4452 10.1334C30.623 10.2223 30.8896 10.3112 31.423 10.3112H39.1563C40.4896 10.3112 41.3785 10.5778 41.9118 11.2C42.4452 11.7334 42.8007 12.4445 42.8007 13.4223V14.7556C42.8007 15.2 42.7118 15.6445 42.6229 16.0889C42.4452 16.5334 42.2674 16.8 42.0007 17.1556C41.7341 17.4223 41.3785 17.6 40.8452 17.7778C40.4007 17.8667 39.8674 17.9556 39.1563 17.9556H27.423C27.1563 17.9556 26.9785 17.7778 26.9785 17.5112V15.7334C26.9785 15.4667 27.1563 15.2889 27.423 15.2889H38.2674C38.8007 15.2889 39.1563 15.2 39.3341 15.0223C39.5118 14.9334 39.6007 14.5778 39.6007 14.2223V13.6C39.6007 13.2445 39.5118 13.0667 39.3341 12.8889C39.1563 12.7112 38.8007 12.6223 38.2674 12.6223H30.5341C29.2896 12.6223 28.4007 12.3556 27.7785 11.8223C27.2452 11.2889 26.9785 10.4889 26.9785 9.51115V8.53337C26.9785 8.00004 26.9785 7.64449 27.1563 7.20004C27.2452 6.84449 27.423 6.48893 27.6896 6.22226C28.0452 5.9556 28.4007 5.68893 28.8452 5.60004C29.2896 5.42226 29.9118 5.33337 30.5341 5.33337H41.8229Z" fill="white"/>
<path d="M48.0446 5.33325C48.4002 5.33325 48.5779 5.51103 48.5779 5.86659V17.511C48.5779 17.7777 48.4002 17.9555 48.0446 17.9555H45.8224C45.4668 17.9555 45.2891 17.7777 45.2891 17.511V5.86659C45.2891 5.51103 45.4668 5.33325 45.8224 5.33325H48.0446Z" fill="white"/>
<path d="M63.5117 5.33337C64.5784 5.33337 65.4673 5.42226 66.0895 5.60004C66.8006 5.77782 67.4228 6.04449 67.7784 6.48893C68.2228 6.84449 68.5784 7.28893 68.7561 7.91115C68.9339 8.53337 69.0228 9.24448 69.0228 10.0445V17.5112C69.0228 17.8667 68.845 18.0445 68.4895 18.0445H66.2673C65.9117 18.0445 65.7339 17.8667 65.7339 17.5112V10.8445C65.7339 10.3112 65.7339 9.9556 65.645 9.60004C65.645 9.24448 65.4673 8.97782 65.2895 8.80004C65.1117 8.62226 64.9339 8.44448 64.5784 8.44448C64.3117 8.3556 63.8673 8.26671 63.4228 8.26671H57.2895C56.7562 8.26671 56.4006 8.3556 56.045 8.44448C55.6895 8.44448 55.4228 8.62226 55.245 8.80004C55.0673 8.97782 54.8895 9.24448 54.8895 9.60004C54.8006 9.9556 54.7117 10.3112 54.7117 10.8445V17.5112C54.7117 17.7778 54.6228 17.9556 54.2673 17.9556H52.0451C51.6006 17.9556 51.5117 17.7778 51.5117 17.5112V10.0445C51.5117 9.1556 51.6006 8.44448 51.7784 7.91115C51.9562 7.28893 52.2228 6.84449 52.6673 6.48893C53.1117 6.04449 53.6451 5.77782 54.3562 5.60004C55.0673 5.42226 55.9562 5.33337 56.9339 5.33337H63.5117Z" fill="white"/>
<path d="M83.4219 5.33337C84.4885 5.33337 85.3774 5.42226 86.0885 5.60004C86.7996 5.77782 87.333 6.04449 87.7774 6.48893C88.2219 6.84449 88.4885 7.28893 88.6663 7.91115C88.8441 8.53337 88.933 9.24448 88.933 10.0445V13.3334C88.933 14.2223 88.8441 14.9334 88.6663 15.4667C88.4885 16.0889 88.2219 16.5334 87.7774 16.9778C87.333 17.3334 86.7996 17.6 86.0885 17.7778C85.3774 17.9556 84.4885 18.0445 83.4219 18.0445H76.933C75.8663 18.0445 74.9774 17.9556 74.2663 17.7778C73.6441 17.6 73.0219 17.3334 72.6663 16.9778C72.2219 16.5334 71.9552 16.0889 71.6885 15.4667C71.5108 14.9334 71.4219 14.1334 71.4219 13.3334V10.0445C71.4219 9.1556 71.5108 8.44448 71.6885 7.91115C71.8663 7.28893 72.2219 6.84449 72.6663 6.48893C73.0219 6.04449 73.6441 5.77782 74.2663 5.60004C74.9774 5.42226 75.8663 5.33337 76.933 5.33337H83.4219ZM74.7997 12.8C74.7997 13.2445 74.7997 13.6889 74.8885 13.9556C74.9774 14.3111 75.0663 14.5778 75.2441 14.7556C75.4219 14.9334 75.6885 15.1112 76.0441 15.2C76.3108 15.2 76.7552 15.2889 77.2885 15.2889H83.1552C83.5996 15.2889 84.0441 15.2 84.3996 15.2C84.6663 15.1112 84.933 14.9334 85.1108 14.7556C85.3774 14.5778 85.4663 14.3111 85.5552 13.9556C85.6441 13.6889 85.6441 13.2445 85.6441 12.8V10.5778C85.6441 10.1334 85.6441 9.68893 85.5552 9.33337C85.4663 9.06671 85.3774 8.80004 85.1108 8.62226C84.933 8.3556 84.6663 8.26671 84.3996 8.17782C84.0441 8.08893 83.6885 8.08893 83.1552 8.08893H77.2885C76.7552 8.08893 76.3108 8.08893 76.0441 8.17782C75.6885 8.26671 75.4219 8.3556 75.2441 8.62226C75.0663 8.80004 74.9774 9.06671 74.8885 9.33337C74.7997 9.68893 74.7997 10.1334 74.7997 10.5778V12.8Z" fill="white"/>
<path d="M30.0006 24.6223C29.9118 24.6223 29.9118 24.5334 29.9118 24.4445V24.1778C29.9118 24 29.8229 23.8223 29.734 23.7334C29.6451 23.6445 29.5562 23.6445 29.3784 23.6445H28.3118C28.0451 23.6445 27.8673 23.6445 27.8673 23.7334C27.7784 23.8223 27.6895 24 27.6895 24.1778V26.3111C27.6895 26.4889 27.7784 26.6667 27.8673 26.7556C27.9562 26.8445 28.0451 26.8445 28.3118 26.8445H29.3784C29.5562 26.8445 29.6451 26.8445 29.734 26.7556C29.8229 26.6667 29.9118 26.4889 29.9118 26.3111V25.6889H28.934C28.8451 25.6889 28.7562 25.6 28.7562 25.6C28.7562 25.5111 28.8451 25.4223 28.934 25.4223H30.0895C30.0895 25.4223 30.1784 25.4223 30.1784 25.5111C30.1784 25.5111 30.1784 25.5111 30.1784 25.6V26.3111C30.1784 26.5778 30.0895 26.7556 30.0006 26.9334C29.8229 27.0223 29.6451 27.1111 29.3784 27.1111H28.2229C27.9562 27.1111 27.6895 27.0223 27.6007 26.9334C27.4229 26.7556 27.334 26.5778 27.334 26.3111V24.1778C27.334 23.9111 27.4229 23.6445 27.6007 23.5556C27.6895 23.4667 27.8673 23.3778 28.2229 23.3778H29.3784C29.6451 23.3778 29.8229 23.4667 30.0006 23.5556C30.0895 23.7334 30.1784 23.9111 30.1784 24.1778V24.4445C30.1784 24.5334 30.1784 24.6223 30.0895 24.6223H30.0006Z" fill="white"/>
<path d="M34.7124 26.8445C34.8013 26.8445 34.8902 26.8445 34.8902 26.9334C34.8902 27.0223 34.8013 27.1111 34.7124 27.1111H32.7569C32.7569 27.1111 32.668 27.1111 32.668 27.0223C32.668 27.0223 32.668 27.0223 32.668 26.9334V23.5556C32.668 23.4667 32.668 23.4667 32.668 23.4667C32.7569 23.3778 32.7569 23.3778 32.8457 23.3778C32.8457 23.3778 32.9346 23.3778 32.9346 23.4667C32.9346 23.4667 32.9346 23.4667 32.9346 23.5556V26.8445H34.7124Z" fill="white"/>
<path d="M37.7346 27.1111C37.379 27.1111 37.2013 27.0223 37.0235 26.9334C36.9346 26.7556 36.8457 26.5778 36.8457 26.3111V24.1778C36.8457 23.9111 36.9346 23.6445 37.0235 23.5556C37.2013 23.4667 37.379 23.3778 37.7346 23.3778H38.8901C39.2457 23.3778 39.4235 23.4667 39.6013 23.5556C39.6901 23.7334 39.779 23.9111 39.779 24.1778V26.3111C39.779 26.5778 39.6901 26.8445 39.6013 26.9334C39.4235 27.0223 39.2457 27.1111 38.8901 27.1111H37.7346ZM37.7346 26.8445H38.8901C39.0679 26.8445 39.2457 26.8445 39.3346 26.7556C39.4235 26.6667 39.4235 26.4889 39.4235 26.3111V24.1778C39.4235 24 39.4235 23.8223 39.3346 23.7334C39.2457 23.6445 39.0679 23.6445 38.8901 23.6445H37.7346C37.5568 23.6445 37.379 23.6445 37.2901 23.7334C37.2013 23.8223 37.2013 24 37.2013 24.1778V26.3111C37.2013 26.4889 37.2013 26.6667 37.2901 26.7556C37.379 26.8445 37.5568 26.8445 37.7346 26.8445Z" fill="white"/>
<path d="M44.2231 25.2445C44.5787 25.2445 44.7565 25.5111 44.7565 25.9556V26.3111C44.7565 26.5778 44.6676 26.7556 44.5787 26.9334C44.4009 27.0223 44.2231 27.1111 43.9565 27.1111H42.3565H42.2676C42.2676 27.0223 42.2676 27.0223 42.2676 26.9334V23.5556C42.2676 23.4667 42.2676 23.4667 42.2676 23.3778H42.3565H43.8676C44.1342 23.3778 44.312 23.4667 44.4009 23.5556C44.5787 23.7334 44.6676 23.9111 44.6676 24.1778V24.5334C44.6676 24.8889 44.4898 25.0667 44.2231 25.2445ZM44.312 24.1778C44.312 24 44.312 23.8223 44.2231 23.7334C44.1342 23.6445 43.9565 23.6445 43.7787 23.6445H42.5342V25.0667H43.7787C43.9565 25.0667 44.1342 25.0667 44.2231 24.9778C44.312 24.8889 44.312 24.7111 44.312 24.5334V24.1778ZM44.4898 26.3111V25.8667C44.4898 25.6889 44.4009 25.6 44.312 25.5111C44.2231 25.4223 44.1342 25.3334 43.9565 25.3334H42.5342V26.8445H43.8676C44.0454 26.8445 44.2231 26.8445 44.312 26.7556C44.4009 26.6667 44.4898 26.4889 44.4898 26.3111Z" fill="white"/>
<path d="M50.0907 26.8445C50.0907 26.9334 50.0907 27.0223 50.0907 27.0223C50.0018 27.1111 50.0018 27.1111 49.9129 27.1111C49.9129 27.1111 49.824 27.0223 49.7351 27.0223L49.2907 25.7778H47.5129L46.9796 26.9334C46.9796 27.0223 46.9796 27.0223 46.9796 27.0223C46.9796 27.1111 46.8907 27.1111 46.8907 27.1111C46.8018 27.1111 46.8018 27.0223 46.7129 27.0223C46.7129 26.9334 46.7129 26.9334 46.7129 26.8445L48.1351 23.5556C48.224 23.3778 48.3129 23.3778 48.4018 23.3778C48.4907 23.3778 48.5796 23.3778 48.5796 23.5556L50.0907 26.8445ZM47.6018 25.6H49.2018L48.4018 23.6445L47.6018 25.6Z" fill="white"/>
<path d="M54.356 26.8445C54.4449 26.8445 54.4449 26.8445 54.4449 26.9334C54.4449 27.0223 54.4449 27.1111 54.356 27.1111H52.4004C52.3115 27.1111 52.3115 27.1111 52.3115 27.0223C52.2227 27.0223 52.2227 27.0223 52.2227 26.9334V23.5556C52.2227 23.4667 52.3115 23.4667 52.3115 23.4667C52.3115 23.3778 52.4004 23.3778 52.4004 23.3778C52.4893 23.3778 52.4893 23.3778 52.4893 23.4667C52.5782 23.4667 52.5782 23.4667 52.5782 23.5556V26.8445H54.356Z" fill="white"/>
<path d="M60.0461 27.1111C59.7794 27.1111 59.6016 27.0223 59.4239 26.9334C59.335 26.7556 59.2461 26.5778 59.2461 26.3111V24.1778C59.2461 23.9111 59.335 23.6445 59.4239 23.5556C59.6016 23.4667 59.7794 23.3778 60.0461 23.3778H60.935C61.2905 23.3778 61.4683 23.4667 61.6461 23.5556C61.735 23.7334 61.8239 23.9111 61.8239 24.1778V24.4445C61.8239 24.5334 61.8239 24.6223 61.735 24.6223H61.6461C61.5572 24.6223 61.5572 24.5334 61.5572 24.4445V24.1778C61.5572 23.9111 61.4683 23.8223 61.3794 23.7334C61.2905 23.6445 61.1128 23.5556 60.935 23.5556H60.135C59.8683 23.5556 59.7794 23.6445 59.6905 23.7334C59.6016 23.8223 59.5128 23.9111 59.5128 24.1778V26.3111C59.5128 26.4889 59.6016 26.6667 59.6905 26.7556C59.7794 26.8445 59.8683 26.8445 60.135 26.8445H60.935C61.1128 26.8445 61.2905 26.8445 61.3794 26.7556C61.4683 26.6667 61.5572 26.4889 61.5572 26.3111V26.0445C61.5572 25.9556 61.5572 25.8667 61.6461 25.8667H61.735C61.8239 25.8667 61.8239 25.9556 61.8239 26.0445V26.3111C61.8239 26.5778 61.735 26.7556 61.6461 26.9334C61.4683 27.0223 61.2905 27.1111 60.935 27.1111H60.0461Z" fill="white"/>
<path d="M67.0672 26.8445C67.0672 26.9334 67.0672 27.0223 67.0672 27.0223C66.9783 27.1111 66.9783 27.1111 66.8894 27.1111L66.8006 27.0223L66.2672 25.7778H64.4895L63.9561 27.0223C63.9561 27.0223 63.9561 27.0223 63.9561 27.1111H63.8672C63.7783 27.1111 63.7783 27.1111 63.6895 27.0223C63.6895 27.0223 63.6895 26.9334 63.6895 26.8445L65.2006 23.5556C65.2006 23.3778 65.2895 23.3778 65.3783 23.3778C65.4672 23.3778 65.5561 23.3778 65.5561 23.5556L67.0672 26.8445ZM64.5783 25.6H66.1783L65.3783 23.6445L64.5783 25.6Z" fill="white"/>
<path d="M70.7123 23.3778C70.979 23.3778 71.1567 23.4667 71.3345 23.5556C71.4234 23.7334 71.5123 23.9111 71.5123 24.1778V24.8889C71.5123 25.1556 71.4234 25.3334 71.3345 25.5111C71.1567 25.6 70.979 25.6889 70.7123 25.6889H69.5567V26.9334C69.5567 27.0223 69.4678 27.1111 69.379 27.1111C69.2901 27.1111 69.2012 27.0223 69.2012 26.9334V23.5556C69.2012 23.4667 69.2012 23.4667 69.2012 23.3778C69.2901 23.3778 69.2901 23.3778 69.379 23.3778H70.7123ZM71.1567 24.8889V24.1778C71.1567 23.8223 70.9789 23.6445 70.6234 23.6445H69.5567V25.4223H70.6234C70.8012 25.4223 70.9789 25.3334 71.0678 25.2445C71.1567 25.2445 71.1567 25.0667 71.1567 24.8889Z" fill="white"/>
<path d="M74.0899 27.1111C74.001 27.1111 73.9121 27.0223 73.9121 26.9334V23.5556C73.9121 23.4667 74.001 23.3778 74.0899 23.3778C74.1788 23.3778 74.2677 23.4667 74.2677 23.5556V26.9334C74.2677 27.0223 74.1788 27.1111 74.0899 27.1111Z" fill="white"/>
<path d="M79.4226 23.3778C79.5115 23.3778 79.6004 23.4667 79.6004 23.5556C79.6004 23.6445 79.5115 23.6445 79.4226 23.6445H78.1782V26.9334C78.1782 27.0223 78.0893 27.1111 78.0004 27.1111C77.9115 27.1111 77.8226 27.0223 77.8226 26.9334V23.6445H76.5782C76.4893 23.6445 76.4004 23.6445 76.4004 23.5556C76.4004 23.4667 76.4893 23.3778 76.5782 23.3778H79.4226Z" fill="white"/>
<path d="M84.3126 26.8445C84.3126 26.9334 84.3126 27.0223 84.3126 27.0223C84.3126 27.1111 84.2237 27.1111 84.2237 27.1111C84.1348 27.1111 84.0459 27.0223 84.0459 27.0223L83.5126 25.7778H81.7348L81.2904 27.0223C81.2015 27.0223 81.2015 27.0223 81.2015 27.1111C81.2015 27.1111 81.2015 27.1111 81.1126 27.1111C81.0237 27.1111 81.0237 27.1111 81.0237 27.0223C80.9348 27.0223 80.9348 26.9334 81.0237 26.8445L82.4459 23.5556C82.4459 23.3778 82.5348 23.3778 82.6237 23.3778C82.7126 23.3778 82.8015 23.3778 82.8015 23.5556L84.3126 26.8445ZM81.8237 25.6H83.4237L82.6237 23.6445L81.8237 25.6Z" fill="white"/>
<path d="M88.5776 26.8445C88.6665 26.8445 88.7554 26.8445 88.7554 26.9334C88.7554 27.0223 88.6665 27.1111 88.5776 27.1111H86.6221C86.6221 27.1111 86.5332 27.1111 86.5332 27.0223C86.5332 27.0223 86.5332 27.0223 86.5332 26.9334V23.5556C86.5332 23.4667 86.5332 23.4667 86.5332 23.4667C86.6221 23.3778 86.6221 23.3778 86.711 23.3778C86.711 23.3778 86.7999 23.3778 86.7999 23.4667C86.7999 23.4667 86.7999 23.4667 86.7999 23.5556V26.8445H88.5776Z" fill="white"/>
</g>
</g>
<defs>
<clipPath id="clip0_361_7968">
<rect width="88.8888" height="32" fill="white" transform="translate(0.222656)"/>
</clipPath>
</defs>
</svg>
