<svg width="159" height="32" viewBox="0 0 159 32" fill="none" xmlns="http://www.w3.org/2000/svg">
<path d="M13.4203 18.0444C13.4203 17.9555 13.5092 17.8667 13.5981 17.6889C15.6425 15.7333 17.687 13.6889 19.7314 11.6444C20.2647 11.1111 20.5314 11.1111 21.0647 11.6444C23.1092 13.6889 25.1536 15.7333 27.1092 17.6889C27.287 17.8667 27.3758 17.9555 27.4647 18.1333C27.5536 17.8667 27.5536 17.6889 27.5536 17.6C27.5536 13.2444 27.5536 8.97777 27.5536 4.7111C27.5536 4.53333 27.5536 4.44444 27.5536 4.35555C27.5536 3.99999 27.6425 3.64444 27.9981 3.55555C28.4425 3.46666 28.7092 3.73333 28.7981 3.99999C29.5981 5.42221 30.3092 6.93332 31.0203 8.35555C32.7981 11.9111 34.6647 15.5555 36.4425 19.1111C36.7981 19.8222 36.7092 20.0889 36.0869 20.3555C31.0203 22.8444 25.9536 25.3333 20.9758 27.8222C20.5314 28.0889 20.2647 28.0889 19.9092 27.9111C14.7536 25.3333 9.68697 22.8444 4.62031 20.3555C4.08698 20.0889 3.99809 19.7333 4.26475 19.2C6.84253 14.1333 9.33142 9.15555 11.9092 4.08888C12.087 3.64444 12.4425 3.46666 12.7092 3.55555C13.1536 3.73333 13.2425 3.99999 13.2425 4.35555C13.2425 8.79999 13.2425 13.1555 13.2425 17.6V17.9555L13.4203 18.0444ZM23.9092 24.8889C24.087 24.8889 24.1758 24.8 24.3536 24.7111C27.1092 23.2889 29.9536 21.9555 32.7981 20.5333C32.8869 20.4444 32.9758 20.4444 33.0647 20.3555C31.5536 20.3555 30.1314 20.3555 28.7092 20.3555C28.6203 20.3555 28.5314 20.3555 28.5314 20.3555C28.4425 20.3555 28.3536 20.3555 28.3536 20.4444C26.8425 21.8667 25.4203 23.3778 23.9092 24.8889ZM16.887 24.8889C16.7981 24.8 16.7981 24.8 16.7981 24.7111C15.3759 23.2889 13.9536 21.8667 12.4425 20.4444C12.4425 20.4444 12.3536 20.3555 12.2647 20.3555C12.1759 20.3555 12.087 20.2667 11.9981 20.3555C11.0203 20.3555 10.0425 20.3555 8.97586 20.3555H7.55364C7.73142 20.4444 7.82031 20.4444 7.82031 20.4444L16.5314 24.8C16.6203 24.8 16.7092 24.8889 16.887 24.8889ZM21.0647 25.6889C21.1536 25.6889 21.2425 25.6 21.2425 25.6C23.1981 23.6444 25.1536 21.7778 27.1092 19.9111C27.287 19.6444 27.1981 19.5555 27.0203 19.4667C25.1536 17.5111 23.1981 15.6444 21.2425 13.7778C21.2425 13.6889 21.1536 13.6 21.0647 13.6V25.6889ZM19.7314 25.6889V13.6C19.6425 13.6889 19.5536 13.6889 19.4647 13.7778C17.5981 15.6444 15.6425 17.5111 13.7759 19.4667C13.5092 19.6444 13.5981 19.7333 13.7759 19.9111C15.6425 21.7778 17.5092 23.6444 19.4647 25.5111C19.4647 25.6 19.5536 25.6889 19.7314 25.6889ZM11.9092 7.1111H11.8203L10.6647 9.5111C9.06475 12.5333 7.55364 15.5555 6.04253 18.5778C5.95364 18.7555 5.68698 19.0222 6.13142 19.0222C7.99808 19.0222 9.77586 19.0222 11.6425 19.0222C11.8203 19.0222 11.9092 18.9333 11.9092 18.7555C11.9092 14.8444 11.9092 11.0222 11.9092 7.1111ZM28.887 7.1111C28.887 7.28888 28.887 7.28888 28.887 7.37777C28.887 11.1111 28.887 14.9333 28.887 18.6667C28.887 18.9333 28.9758 19.0222 29.2425 19.0222C30.9314 19.0222 32.7092 19.0222 34.3981 19.0222C34.9314 19.0222 34.9314 19.0222 34.7536 18.5778C32.8869 14.8444 31.0203 11.2 29.1536 7.55555C29.0647 7.46666 29.0647 7.28888 28.887 7.1111Z" fill="white"/>
<path d="M116.533 17.6889C116.71 17.6 116.799 17.4222 116.799 17.3333C117.866 15.0222 118.933 12.8 119.999 10.4889C120.088 10.3111 120.177 10.1333 120.355 10.1333C120.71 9.95554 120.888 10.1333 120.977 10.4889C121.51 13.6 122.044 16.6222 122.666 19.7333C122.666 20.0889 122.755 20.4444 122.844 20.8C122.933 21.2444 122.844 21.3333 122.399 21.3333C122.044 21.3333 121.688 21.3333 121.333 21.3333C120.977 21.3333 120.799 21.2444 120.799 20.8889C120.444 19.1111 120.177 17.2444 119.91 15.4667C119.91 15.3778 119.91 15.2889 119.821 15.2C119.644 15.2889 119.644 15.4667 119.644 15.5555C118.755 17.4222 117.955 19.2889 117.066 21.1555C116.977 21.3333 116.888 21.5111 116.621 21.5111C116.266 21.5111 116.177 21.3333 116.088 21.1555C115.199 19.2889 114.399 17.4222 113.599 15.5555C113.51 15.4667 113.421 15.2889 113.333 15.2C113.244 15.5555 113.155 16 113.066 16.4444C112.888 17.8667 112.621 19.3778 112.444 20.8C112.355 21.2444 112.177 21.4222 111.821 21.3333C111.466 21.3333 111.11 21.3333 110.755 21.3333C110.399 21.3333 110.31 21.2444 110.399 20.8C110.577 19.4667 110.844 18.0444 111.11 16.7111C111.466 14.6667 111.821 12.6222 112.177 10.5778C112.266 10.3111 112.266 10.1333 112.533 10.0444C112.888 10.0444 113.066 10.1333 113.155 10.4889C114.221 12.7111 115.288 15.0222 116.355 17.2444C116.444 17.4222 116.533 17.5111 116.533 17.6889Z" fill="white"/>
<path d="M51.9992 16.7111C52.2658 15.6444 52.5325 14.5778 52.7992 13.4222C53.0658 12.5333 53.3325 11.5555 53.5103 10.6667C53.5992 10.3111 53.7769 10.2222 54.1325 10.2222C54.488 10.2222 54.8436 10.2222 55.1992 10.2222C55.6436 10.2222 55.7325 10.4 55.6436 10.8444C55.1992 12.3555 54.7547 13.9555 54.3103 15.4667C53.7769 17.3333 53.2436 19.2 52.7103 21.0667C52.6214 21.3333 52.5325 21.5111 52.2658 21.5111C51.9103 21.5111 51.8214 21.3333 51.7325 21.1555C50.8436 18.9333 49.9547 16.7111 49.0658 14.4889C48.9769 14.4 48.9769 14.3111 48.888 14.2222C48.7992 14.3111 48.7992 14.4 48.7103 14.4889C47.8214 16.7111 47.0214 18.9333 46.1325 21.0667C46.0436 21.2444 46.0436 21.5111 45.7769 21.5111C45.4214 21.5111 45.2436 21.4222 45.1547 21.0667C44.5325 18.8444 43.9103 16.7111 43.2881 14.4889C42.9325 13.3333 42.5769 12.0889 42.2214 10.9333C42.0436 10.3111 42.1325 10.2222 42.8436 10.2222C43.1103 10.2222 43.3769 10.2222 43.7325 10.2222C44.0881 10.2222 44.2658 10.4 44.2658 10.6667C44.7992 12.5333 45.2436 14.4 45.7769 16.2667C45.7769 16.4444 45.7769 16.6222 45.9547 16.8C46.3992 15.7333 46.7547 14.6667 47.1992 13.6C47.5547 12.6222 47.9992 11.5555 48.3547 10.5778C48.4436 10.3111 48.5325 10.0444 48.9769 10.0444C49.3325 10.0444 49.3325 10.3111 49.4214 10.5778C50.2214 12.5333 51.0214 14.4 51.7325 16.3555C51.8214 16.5333 51.8214 16.6222 51.9103 16.7111H51.9992Z" fill="white"/>
<path d="M72.4432 16.9778C72.621 16.8889 72.5321 16.7111 72.5321 16.5333C72.5321 14.6667 72.5321 12.7111 72.5321 10.8444C72.5321 10.3111 72.621 10.2222 73.1543 10.2222C73.421 10.2222 73.7765 10.2222 74.1321 10.2222C74.5765 10.2222 74.6654 10.3111 74.6654 10.8444C74.6654 13.7778 74.6654 16.7111 74.6654 19.6444V20.9778C74.6654 21.1555 74.6654 21.4222 74.3987 21.5111C74.2209 21.6 73.9543 21.5111 73.7765 21.3333C72.0876 19.4666 70.3987 17.6 68.621 15.7333C68.2654 15.2889 67.821 14.8444 67.2876 14.3111C67.1987 14.4889 67.2876 14.6667 67.2876 14.7555C67.2876 16.8 67.2876 18.7555 67.2876 20.8C67.2876 21.3333 67.1987 21.3333 66.6654 21.3333H65.7765C65.2432 21.3333 65.1543 21.3333 65.1543 20.8C65.1543 18.2222 65.1543 15.6444 65.1543 13.1555C65.1543 12.2667 65.1543 11.4667 65.1543 10.6667C65.1543 10.4889 65.1543 10.2222 65.421 10.1333C65.5098 10.0444 65.6876 10.0444 65.7765 10.1333C65.8654 10.1333 66.0432 10.2222 66.1321 10.3111C67.821 12.1778 69.5987 13.9555 71.2876 15.8222C71.7321 16.1778 72.0876 16.6222 72.4432 16.9778Z" fill="white"/>
<path d="M101.865 10.2222C102.665 10.2222 103.554 10.2222 104.354 10.3111C105.065 10.3111 105.776 10.6666 106.398 11.1999C106.932 11.6444 107.287 12.3555 107.465 13.0666C107.643 14.4888 106.932 15.9111 105.509 16.6222C105.154 16.7999 105.154 16.9777 105.332 17.2444C105.954 18.3999 106.576 19.5555 107.198 20.6222C107.465 21.1555 107.376 21.3333 106.754 21.3333C106.398 21.3333 105.954 21.3333 105.509 21.3333C105.243 21.3333 105.065 21.2444 104.976 20.9777C104.354 19.7333 103.732 18.5777 103.109 17.3333C103.02 17.0666 102.843 16.9777 102.576 16.9777C102.22 17.0666 101.865 17.0666 101.598 16.9777C101.243 16.9777 101.154 17.0666 101.154 17.4222C101.154 18.5777 101.154 19.7333 101.154 20.7999C101.154 21.2444 101.065 21.3333 100.709 21.3333C100.354 21.3333 99.9983 21.3333 99.6427 21.3333C99.1094 21.3333 99.1094 21.3333 99.1094 20.7999C99.1094 17.5999 99.1094 14.3999 99.1094 11.2888C99.1094 11.0222 99.1094 10.8444 99.1094 10.6666C99.1094 10.3999 99.1983 10.2222 99.5538 10.2222C100.354 10.2222 101.065 10.2222 101.865 10.2222ZM101.154 13.6888C101.154 14.1333 101.243 14.5777 101.154 15.0222C101.154 15.1999 101.243 15.2888 101.42 15.2888C102.22 15.2888 103.02 15.2888 103.82 15.2888C104.265 15.2888 104.62 15.1111 104.976 14.8444C105.243 14.4888 105.42 14.1333 105.42 13.6888C105.42 13.3333 105.243 12.8888 104.976 12.6222C104.62 12.3555 104.265 12.1777 103.82 12.1777C103.02 12.1777 102.22 12.1777 101.42 12.1777C101.243 12.1777 101.154 12.1777 101.154 12.4444C101.243 12.7999 101.154 13.2444 101.154 13.6888Z" fill="white"/>
<path d="M135.111 14.3111C135.022 15.2888 135.199 16.5333 135.022 17.8666C134.666 20.0888 132.622 21.6888 130.311 21.5111C127.999 21.3333 126.133 19.5555 126.133 17.2444C126.133 15.1111 126.133 12.8888 126.133 10.7555C126.133 10.3999 126.311 10.2222 126.666 10.2222C127.022 10.2222 127.377 10.2222 127.644 10.2222C128.266 10.2222 128.266 10.3111 128.266 10.8444C128.266 12.7999 128.266 14.7555 128.266 16.7111C128.266 16.8888 128.266 17.0666 128.266 17.3333C128.444 18.6666 129.422 19.4666 130.755 19.4666C131.999 19.3777 132.888 18.3999 132.888 17.0666C132.977 15.0222 132.888 12.9777 132.888 10.9333C132.888 10.3111 132.977 10.2222 133.599 10.2222C133.955 10.2222 134.311 10.2222 134.577 10.2222C134.933 10.2222 135.111 10.3999 135.111 10.7555C135.111 11.8222 135.111 12.9777 135.111 14.3111Z" fill="white"/>
<path d="M88.2656 15.8222C88.2656 14.1333 88.2656 12.4444 88.2656 10.7555C88.2656 10.3111 88.2656 10.2222 88.799 10.2222C90.7545 10.2222 92.7989 10.2222 94.8434 10.2222C95.2878 10.2222 95.3767 10.3111 95.3767 10.7555C95.3767 11.0222 95.3767 11.2888 95.3767 11.5555C95.3767 12.1777 95.2878 12.1777 94.7545 12.1777C93.4212 12.1777 92.0878 12.1777 90.6656 12.1777C90.399 12.1777 90.3101 12.1777 90.3101 12.5333C90.3101 13.1555 90.3101 13.7777 90.3101 14.3999C90.3101 14.6666 90.399 14.7555 90.6656 14.7555C91.8212 14.7555 92.8878 14.7555 94.0434 14.7555C94.4878 14.7555 94.5767 14.8444 94.5767 15.2888C94.5767 15.5555 94.5767 15.9111 94.5767 16.1777C94.5767 16.5333 94.4878 16.7111 94.1323 16.7111C92.9767 16.6222 91.8212 16.7111 90.6656 16.7111C90.399 16.7111 90.3101 16.7111 90.3101 16.9777C90.3101 17.6888 90.3101 18.3999 90.3101 19.1111C90.3101 19.3777 90.399 19.4666 90.6656 19.4666C91.999 19.4666 93.4212 19.4666 94.7545 19.4666C95.2878 19.4666 95.3767 19.4666 95.3767 19.9999C95.3767 20.2666 95.3767 20.5333 95.3767 20.7999C95.3767 21.3333 95.2878 21.3333 94.7545 21.3333H88.799C88.2656 21.3333 88.2656 21.3333 88.2656 20.7111C88.2656 19.1111 88.2656 17.4222 88.2656 15.8222Z" fill="white"/>
<path d="M148.531 15.8222C148.531 14.1333 148.531 12.4444 148.531 10.7555C148.531 10.3111 148.62 10.2222 149.153 10.2222C151.109 10.2222 153.153 10.2222 155.109 10.2222C155.642 10.2222 155.731 10.3111 155.731 10.7555C155.731 11.1111 155.731 11.3777 155.731 11.6444C155.731 11.9999 155.553 12.1777 155.198 12.1777C153.865 12.1777 152.442 12.1777 151.02 12.1777C150.753 12.1777 150.665 12.1777 150.665 12.5333C150.665 13.1555 150.665 13.7777 150.665 14.3999C150.665 14.6666 150.753 14.7555 151.02 14.7555C152.176 14.7555 153.242 14.7555 154.398 14.7555C154.753 14.7555 154.931 14.8444 154.931 15.2888C154.931 15.5555 154.931 15.9111 154.931 16.1777C154.931 16.5333 154.753 16.7111 154.487 16.7111C153.331 16.6222 152.176 16.7111 151.02 16.7111C150.753 16.7111 150.665 16.7111 150.665 17.0666C150.665 17.7777 150.665 18.3999 150.665 19.1111C150.665 19.3777 150.753 19.4666 150.931 19.4666C152.353 19.4666 153.776 19.4666 155.109 19.4666C155.642 19.4666 155.731 19.4666 155.731 19.9999C155.731 20.2666 155.731 20.6222 155.731 20.9777C155.731 21.2444 155.553 21.3333 155.287 21.3333C153.153 21.3333 151.109 21.3333 148.976 21.3333C148.62 21.3333 148.531 21.1555 148.531 20.8888C148.531 19.1999 148.531 17.5111 148.531 15.8222Z" fill="white"/>
<path d="M140.711 16.7111C140.711 15.2888 140.711 13.9555 140.711 12.5333C140.711 12.1777 140.622 12.1777 140.355 12.1777C139.733 12.1777 139.111 12.1777 138.4 12.1777C138.133 12.1777 137.955 11.9999 137.955 11.6444C137.955 11.3777 137.955 11.0222 137.955 10.6666C137.955 10.3999 138.133 10.2222 138.4 10.2222C140.622 10.2222 142.933 10.2222 145.155 10.2222C145.422 10.2222 145.6 10.3999 145.6 10.6666C145.6 11.0222 145.6 11.3777 145.6 11.7333C145.6 12.0888 145.422 12.1777 145.155 12.1777C144.533 12.1777 143.822 12.1777 143.2 12.1777C142.933 12.1777 142.844 12.2666 142.844 12.5333C142.844 15.2888 142.844 18.0444 142.844 20.7111C142.844 21.3333 142.755 21.3333 142.222 21.3333C141.866 21.3333 141.6 21.3333 141.244 21.3333C140.888 21.3333 140.711 21.2444 140.711 20.7999C140.711 19.4666 140.711 18.0444 140.711 16.7111Z" fill="white"/>
<path d="M82.4885 16.7111C82.4885 18.0444 82.4885 19.4666 82.4885 20.7999C82.4885 21.3333 82.3996 21.3333 81.9552 21.3333H80.9774C80.444 21.3333 80.3552 21.3333 80.3552 20.7999C80.3552 18.0444 80.3552 15.3777 80.3552 12.6222C80.3552 12.1777 80.2663 12.0888 79.9107 12.1777C79.2885 12.1777 78.6663 12.1777 78.0441 12.1777C77.7774 12.1777 77.5996 11.9999 77.5996 11.7333C77.6885 11.3777 77.6885 11.0222 77.5996 10.6666C77.5996 10.3999 77.7774 10.2222 78.0441 10.2222C80.3552 10.2222 82.5774 10.2222 84.7996 10.2222C85.1552 10.2222 85.244 10.3999 85.244 10.6666C85.244 11.0222 85.244 11.3777 85.244 11.7333C85.244 11.9999 85.1552 12.1777 84.7996 12.1777C84.1774 12.1777 83.5552 12.1777 82.9329 12.1777C82.5774 12.0888 82.4885 12.2666 82.4885 12.6222C82.4885 13.9555 82.4885 15.2888 82.4885 16.7111Z" fill="white"/>
<path d="M60.8882 15.7333C60.8882 17.4222 60.8882 19.1111 60.8882 20.7999C60.8882 21.2444 60.8882 21.3333 60.3549 21.3333C59.9993 21.3333 59.6438 21.3333 59.3771 21.3333C58.8438 21.3333 58.8438 21.2444 58.8438 20.7999C58.8438 18.8444 58.8438 16.8888 58.8438 14.9333C58.8438 13.5999 58.8438 12.1777 58.8438 10.7555C58.8438 10.3111 58.8438 10.2222 59.3771 10.2222C59.7326 10.2222 59.9993 10.2222 60.3549 10.2222C60.8882 10.2222 60.8882 10.3111 60.8882 10.7555C60.9771 12.4444 60.9771 14.1333 60.8882 15.7333Z" fill="white"/>
</svg>
