<svg width="23" height="26" viewBox="0 0 23 26" fill="none" xmlns="http://www.w3.org/2000/svg">
    <path d="M7.43457 7.7426L11.4658 0.73885C11.7249 0.308767 12.1744 0.0444336 12.6765 0.0444336H20.9797C21.4819 0.0444336 21.9313 0.308767 22.1733 0.73885C22.4324 1.1646 22.4324 1.70085 22.1733 2.1266L18.4367 8.64285L22.1733 15.1591C22.4324 15.5849 22.4324 16.1211 22.1733 16.5469C21.9313 16.9726 21.4819 17.2359 20.9797 17.2413H16.1711V17.0777C16.1539 16.9152 16.1195 16.7516 16.084 16.5934C16.0324 16.458 15.9808 16.3269 15.9292 16.2002C15.8787 16.1189 15.826 16.0388 15.7733 15.9586C15.7733 15.9434 15.7561 15.9261 15.7389 15.9088L15.7561 15.9261L11.7077 8.8931C11.6905 8.84977 11.6561 8.80752 11.6217 8.76418C11.5518 8.66018 11.483 8.5616 11.3969 8.46735C11.1141 8.1651 10.7561 7.9441 10.3582 7.83035C10.2034 7.78918 10.0647 7.76102 9.90876 7.7491C9.85715 7.74477 9.80554 7.7426 9.75285 7.7426H7.43457Z" fill="#0076FF"/>
    <path d="M3.95816 17.2618L0.204401 10.7456C-0.0375347 10.3155 -0.0375347 9.78897 0.204401 9.35781C0.463541 8.92772 0.913003 8.66339 1.41515 8.66339H9.71838C10.2023 8.66339 10.67 8.92772 10.9119 9.35781L14.9775 16.4287C15.0119 16.471 15.0463 16.5143 15.0635 16.5587C15.2023 16.7765 15.2539 17.0191 15.2539 17.2618C15.2539 17.5045 15.2023 17.7482 15.0635 17.9649C15.0463 18.0104 15.0119 18.0537 14.9775 18.0949L10.9119 25.1658C10.67 25.597 10.2023 25.8602 9.71838 25.8602H1.41515C0.913003 25.8602 0.463541 25.597 0.204401 25.1658C-0.0375347 24.7357 -0.0375347 24.2092 0.204401 23.7781L3.95816 17.2618Z" fill="#3CB2FF"/>
</svg>
