<svg width="100" height="26" viewBox="0 0 100 26" fill="none" xmlns="http://www.w3.org/2000/svg">
    <path d="M7.43457 7.7426L11.4658 0.73885C11.7249 0.308767 12.1744 0.0444336 12.6765 0.0444336H20.9797C21.4819 0.0444336 21.9313 0.308767 22.1733 0.73885C22.4324 1.1646 22.4324 1.70085 22.1733 2.1266L18.4367 8.64285L22.1733 15.1591C22.4324 15.5849 22.4324 16.1211 22.1733 16.5469C21.9313 16.9726 21.4819 17.2359 20.9797 17.2413H16.1711V17.0777C16.1539 16.9152 16.1195 16.7516 16.084 16.5934C16.0324 16.458 15.9808 16.3269 15.9292 16.2002C15.8787 16.1189 15.826 16.0388 15.7733 15.9586C15.7733 15.9434 15.7561 15.9261 15.7389 15.9088L15.7561 15.9261L11.7077 8.8931C11.6905 8.84977 11.6561 8.80752 11.6217 8.76418C11.5518 8.66018 11.483 8.5616 11.3969 8.46735C11.1141 8.1651 10.7561 7.9441 10.3582 7.83035C10.2034 7.78918 10.0647 7.76102 9.90876 7.7491C9.85715 7.74477 9.80554 7.7426 9.75285 7.7426H7.43457Z" fill="#0076FF"/>
    <path d="M3.95816 17.2618L0.204401 10.7456C-0.0375347 10.3155 -0.0375347 9.78897 0.204401 9.35781C0.463541 8.92772 0.913003 8.66339 1.41515 8.66339H9.71838C10.2023 8.66339 10.67 8.92772 10.9119 9.35781L14.9775 16.4287C15.0119 16.471 15.0463 16.5143 15.0635 16.5587C15.2023 16.7765 15.2539 17.0191 15.2539 17.2618C15.2539 17.5045 15.2023 17.7482 15.0635 17.9649C15.0463 18.0104 15.0119 18.0537 14.9775 18.0949L10.9119 25.1658C10.67 25.597 10.2023 25.8602 9.71838 25.8602H1.41515C0.913003 25.8602 0.463541 25.597 0.204401 25.1658C-0.0375347 24.7357 -0.0375347 24.2092 0.204401 23.7781L3.95816 17.2618Z" fill="#3CB2FF"/>
    <path d="M47.9869 19.631C47.9869 19.9538 47.9515 20.1445 47.8644 20.2203C47.7783 20.2962 47.5869 20.3341 47.2568 20.3341H45.2418C44.9289 20.3341 44.7203 20.2962 44.6332 20.2203C44.5289 20.1445 44.4945 19.9538 44.4945 19.631V14.4819H40.4633V19.631C40.4633 19.9538 40.4289 20.1445 40.3418 20.2203C40.2547 20.2962 40.0461 20.3341 39.7332 20.3341H37.6654C37.3536 20.3341 37.1622 20.2962 37.0751 20.2203C37.0063 20.1445 36.9536 19.9538 36.9536 19.631V6.29299C36.9536 5.97015 37.0063 5.77949 37.0923 5.70365C37.1794 5.62782 37.3708 5.5899 37.7009 5.5899H39.7332C40.0461 5.5899 40.2547 5.62782 40.3418 5.70365C40.4289 5.77949 40.4633 5.97015 40.4633 6.29299V11.3847H44.4945V6.29299C44.4945 5.97015 44.5289 5.77949 44.616 5.70365C44.7031 5.62782 44.8934 5.5899 45.2235 5.5899H47.2568C47.5869 5.5899 47.7783 5.62782 47.8644 5.70365C47.9515 5.77949 47.9869 5.97015 47.9869 6.29299V19.631ZM53.8375 15.7234C53.8375 16.2055 53.873 16.5446 53.9095 16.7764C53.9633 17.0093 54.0697 17.2054 54.231 17.3484C54.4278 17.5618 54.731 17.6517 55.1235 17.6517H55.2128C55.6235 17.6517 55.9095 17.5618 56.1063 17.3484C56.2665 17.2054 56.374 17.0093 56.4278 16.7764C56.4805 16.5446 56.4988 16.2055 56.4988 15.7234V14.0637C56.4988 13.5817 56.4816 13.2242 56.4278 13.0107C56.374 12.7789 56.2665 12.5817 56.1063 12.4214C55.9095 12.2253 55.6235 12.1354 55.2128 12.1354H55.1235C54.731 12.1354 54.4267 12.2253 54.231 12.4214C54.0697 12.5817 53.9633 12.7789 53.9095 13.0107C53.873 13.2242 53.8375 13.5817 53.8375 14.0637V15.7234ZM59.9461 15.5804C59.9461 16.1167 59.9278 16.5987 59.874 17.0093C59.8031 17.4199 59.7138 17.7763 59.6063 18.0981C59.5063 18.383 59.3676 18.6527 59.1955 18.9008C59.0267 19.1229 58.8289 19.3212 58.6063 19.4902C58.2848 19.7404 57.8568 19.9365 57.3031 20.0968C56.731 20.2572 56.0708 20.3287 55.302 20.3287H55.0525C54.2665 20.3287 53.6052 20.2582 53.0515 20.0968C52.4988 19.9365 52.0515 19.7404 51.7482 19.4902C51.516 19.3298 51.3192 19.1153 51.159 18.9008C50.9977 18.669 50.8547 18.4014 50.73 18.0981C50.6117 17.7438 50.5278 17.3787 50.4805 17.0093C50.4192 16.5348 50.3902 16.0582 50.3912 15.5804V14.2067C50.3912 13.6705 50.4267 13.1884 50.4805 12.7789C50.5332 12.3499 50.6224 11.9924 50.73 11.6891C50.8547 11.3857 50.9977 11.1182 51.159 10.8863C51.3192 10.6545 51.516 10.4573 51.7482 10.2797C52.0515 10.0467 52.4977 9.85066 53.0515 9.69032C53.6052 9.52999 54.2665 9.45849 55.0525 9.45849H55.302C56.0708 9.45849 56.731 9.52999 57.3031 9.69032C57.8568 9.85066 58.2848 10.0467 58.6063 10.2797C58.8214 10.4573 59.0353 10.6545 59.1955 10.8863C59.3676 11.1344 59.5063 11.4042 59.6063 11.6891C59.7138 11.9924 59.8031 12.3499 59.874 12.7605C59.9278 13.1711 59.9461 13.6347 59.9461 14.1883V15.5804ZM66.3515 17.4957C66.5644 17.4957 66.7246 17.5499 66.8138 17.6582C66.9203 17.7492 66.9558 17.9475 66.9558 18.2378V19.5942C66.9558 19.8834 66.9203 20.0643 66.8138 20.1727C66.7246 20.281 66.5644 20.3178 66.3515 20.3178H64.7138C63.6644 20.3178 62.8988 20.1185 62.4719 19.6841C62.2407 19.4674 62.0622 19.1782 61.974 18.8347C61.8848 18.4902 61.8493 18.0569 61.8493 17.4957V6.26265C61.8493 6.0644 61.8848 5.9019 61.9912 5.79249C62.0977 5.68415 62.2762 5.62999 62.5611 5.62999H64.5364C64.8214 5.62999 65.0171 5.68415 65.1052 5.79249C65.2128 5.9019 65.2654 6.0644 65.2654 6.26265V17.0982C65.2654 17.2422 65.2837 17.3517 65.3364 17.4058C65.4085 17.4773 65.4966 17.4957 65.6568 17.4957H66.3515Z" fill="white"/>
    <path d="M66.3125 17.4839C66.5265 17.4839 66.6878 17.5392 66.777 17.6475C66.8846 17.7385 66.92 17.9379 66.92 18.2293V19.591C66.92 19.8814 66.8846 20.0623 66.777 20.1717C66.6878 20.2811 66.5265 20.3169 66.3125 20.3169H64.6684C63.6136 20.3169 62.8448 20.1175 62.4157 19.682C62.1835 19.4632 62.005 19.1729 61.9157 18.8284C61.8265 18.4828 61.791 18.0473 61.791 17.4839V6.20861C61.791 6.00819 61.8265 5.84461 61.934 5.73628C62.0405 5.62686 62.22 5.57269 62.505 5.57269H64.4889C64.7749 5.57269 64.9717 5.62686 65.0609 5.73628C65.1684 5.84461 65.2222 6.00819 65.2222 6.20861V17.0853C65.2222 17.2304 65.2394 17.3388 65.2932 17.394C65.3652 17.4666 65.4545 17.4839 65.6157 17.4839H66.3125ZM74.1964 13.6349C74.1964 13.2958 74.1609 13.0639 74.1254 12.9036C74.0899 12.7433 74.019 12.6003 73.9308 12.493C73.7534 12.2612 73.4168 12.1539 72.9394 12.1539H72.7265C72.2663 12.1539 71.948 12.2785 71.7351 12.5104C71.6114 12.6718 71.5233 12.8852 71.4878 13.1885C71.4706 13.4745 71.4523 13.9209 71.4523 14.5275V15.4744C71.4523 16.0095 71.4706 16.4201 71.5061 16.7061C71.5405 16.9737 71.6297 17.2055 71.7706 17.3485C71.9308 17.5619 72.2663 17.6519 72.7448 17.6519H72.9749C73.3813 17.6519 73.7007 17.5619 73.8953 17.3659C74.0899 17.1698 74.1964 16.8307 74.1964 16.3486V13.6349ZM74.1964 9.83344V6.19236C74.1964 5.99519 74.2319 5.85219 74.3372 5.74603C74.4265 5.63878 74.6211 5.58461 74.9039 5.58461H76.8867C77.1695 5.58461 77.3652 5.63878 77.4534 5.74494C77.5416 5.85219 77.577 5.99519 77.577 6.19128V16.0095C77.577 16.8491 77.5061 17.5089 77.3824 17.9736C77.2405 18.4557 77.0286 18.8294 76.7631 19.1339C76.3738 19.5444 75.8953 19.8478 75.3286 20.0439C74.7448 20.2399 73.948 20.3299 72.9211 20.3299H72.5502C71.6469 20.3299 70.9394 20.2584 70.4254 20.0796C69.9125 19.9193 69.4878 19.6864 69.134 19.3657C68.7265 19.0266 68.4609 18.5445 68.2835 17.9379C68.1071 17.3301 68.0362 16.5989 68.0362 15.7419V14.0281C68.0362 13.1539 68.1071 12.4215 68.248 11.8679C68.4082 11.297 68.6727 10.8149 69.0803 10.4401C69.3813 10.1541 69.7889 9.92228 70.2663 9.72619C70.762 9.54744 71.3104 9.45861 71.9125 9.45861H72.1609C72.5856 9.45861 72.9566 9.49436 73.2932 9.56586C73.6125 9.63736 73.8953 9.72619 74.1426 9.83344H74.1964ZM84.8942 17.5619C85.2502 17.5619 85.6416 17.5446 86.0867 17.4915C86.5308 17.42 86.8867 17.3659 87.1717 17.2944C87.2254 17.277 87.2792 17.2586 87.3502 17.2413C87.4211 17.2413 87.4921 17.2229 87.5631 17.2229C87.777 17.2229 87.919 17.3485 87.9555 17.5977L88.1147 18.6518C88.1512 18.7764 88.1684 18.8836 88.1867 18.9909C88.2039 19.0797 88.2039 19.1685 88.2039 19.24C88.2039 19.383 88.1684 19.4903 88.0975 19.5802C88.0265 19.669 87.8835 19.7405 87.6523 19.812C87.2254 19.9724 86.7093 20.0969 86.1222 20.1869C85.5168 20.293 84.9652 20.3288 84.4319 20.3288H84.0222C83.1684 20.3288 82.4211 20.2399 81.7985 20.0612C81.1749 19.8835 80.677 19.6149 80.3028 19.24C79.876 18.8121 79.591 18.3116 79.4491 17.7234C79.3071 17.1524 79.2351 16.4201 79.2351 15.5459V14.3488C79.2351 13.2784 79.3598 12.4389 79.6093 11.8322C79.8405 11.2082 80.1426 10.7434 80.5168 10.4217C81.2469 9.76194 82.3674 9.45861 83.8803 9.45861H84.1652C84.948 9.45861 85.6061 9.54744 86.1577 9.74353C86.6921 9.94069 87.119 10.1899 87.4039 10.5289C87.7588 10.9395 88.0265 11.44 88.1867 12.0467C88.3469 12.6534 88.4179 13.4214 88.4179 14.3488V15.4744C88.4179 15.7062 88.3824 15.8492 88.2749 15.938C88.1684 16.0269 88.0265 16.0626 87.8125 16.0626H82.6878V16.2414C82.6878 16.7408 82.8125 17.0809 83.1147 17.277C83.3996 17.4731 83.9157 17.563 84.6631 17.563L84.8942 17.5619ZM85.019 13.8494C85.1964 13.8494 85.2856 13.7421 85.2856 13.5644V13.2243C85.2856 12.7964 85.2147 12.4573 85.0717 12.2428C84.8942 11.9752 84.5738 11.8506 84.0932 11.8506H83.8975C83.4889 11.8506 83.1856 11.9394 83.0082 12.1539C82.777 12.3858 82.6878 12.779 82.6878 13.2958V13.8494H85.019ZM93.134 19.773C93.0265 20.0319 92.919 20.1793 92.8287 20.2356C92.7383 20.3093 92.5405 20.3277 92.2534 20.3277H89.8437C89.5921 20.3277 89.4491 20.2724 89.3942 20.124C89.3222 19.9767 89.3588 19.8099 89.4663 19.6062L91.6781 15.2577C91.7319 15.1288 91.7684 15.0356 91.7856 14.9988C91.7856 14.9435 91.8039 14.8883 91.8039 14.8146C91.8039 14.7399 91.7856 14.6662 91.7856 14.6109C91.7684 14.5546 91.7319 14.4809 91.6781 14.3889L89.5921 10.1888C89.4846 9.98511 89.4663 9.79986 89.5211 9.66986C89.5749 9.52253 89.7179 9.44778 89.9695 9.44778H92.3792C92.6663 9.44778 92.8641 9.48461 92.9727 9.54094C93.062 9.59619 93.1706 9.76303 93.2781 10.0035L94.4286 13.0748C94.4641 13.13 94.519 13.1669 94.591 13.1669H94.6082C94.6803 13.1669 94.734 13.13 94.7523 13.0748L95.9211 10.0035C96.0287 9.76303 96.119 9.59619 96.2265 9.54094C96.3168 9.48569 96.5147 9.44778 96.8018 9.44778H99.2287C99.4631 9.44778 99.6244 9.52253 99.6781 9.66986C99.7319 9.79986 99.7147 9.98511 99.5889 10.1888L97.5211 14.3889C97.4674 14.4994 97.4308 14.5914 97.4136 14.6283C97.3953 14.6846 97.3953 14.7583 97.3953 14.8319C97.3953 14.9067 97.3953 14.9619 97.4136 15.0172C97.4308 15.0724 97.4674 15.1472 97.5211 15.2577L99.7147 19.6062C99.8405 19.8099 99.8577 19.9756 99.8039 20.124C99.7502 20.2724 99.6061 20.3277 99.3545 20.3277H96.9459C96.6577 20.3277 96.4598 20.3093 96.3706 20.2345C96.262 20.1793 96.1727 20.0319 96.0469 19.773L94.7523 16.6454C94.734 16.5902 94.6803 16.5534 94.6082 16.5534H94.591C94.519 16.5534 94.4641 16.5902 94.4286 16.6454L93.134 19.773Z" fill="white"/>
</svg>